<svg width="329" height="327" viewBox="0 0 329 327" fill="none" xmlns="http://www.w3.org/2000/svg">
<path d="M134.846 11.7288C136.024 11.5003 137.153 11.5868 138.233 11.9885C139.295 12.4183 140.209 13.0966 140.975 14.0236C141.723 14.9788 142.222 16.1043 142.473 17.4001C142.766 18.908 142.703 20.3503 142.286 21.727C141.849 23.1318 141.137 24.3091 140.147 25.2588C139.163 26.2321 137.987 26.8513 136.621 27.1164C135.089 27.4135 133.666 27.2617 132.352 26.661C132.028 26.5038 131.843 26.3073 131.797 26.0717C131.738 25.7654 131.853 25.4131 132.142 25.0147C132.432 24.6163 132.73 24.3874 133.036 24.328C133.154 24.3051 133.278 24.3176 133.41 24.3654C133.546 24.4368 133.694 24.5059 133.854 24.5728C134.529 24.9062 135.206 25.1784 135.882 25.3894C136.559 25.6004 137.097 25.6671 137.498 25.5894C138.652 25.3655 139.49 24.6408 140.01 23.4153C140.506 22.1944 140.588 20.724 140.254 19.004C140.044 17.9202 139.614 16.9646 138.965 16.1371C138.32 15.3332 137.535 14.7521 136.61 14.3937C135.684 14.0353 134.727 13.9521 133.738 14.144C133.054 14.2766 132.486 14.4968 132.032 14.8049C131.583 15.1364 131.131 15.6398 130.675 16.3149C130.58 16.4556 130.474 16.5374 130.356 16.5602C130.238 16.5831 130.135 16.5542 130.046 16.4737C129.957 16.3932 129.898 16.2822 129.871 16.1408C129.821 15.8817 129.927 15.4822 130.189 14.9424C130.612 14.1024 131.224 13.4093 132.022 12.8632C132.821 12.3172 133.762 11.939 134.846 11.7288Z" fill="black" fill-opacity="0.5"/>
<path d="M120.845 15.4644C121.367 15.2864 121.664 15.2996 121.733 15.5041C121.787 15.6631 121.769 15.7961 121.679 15.9029C121.573 16.0402 121.4 16.2007 121.158 16.3845C121.052 16.4459 120.875 16.5571 120.625 16.7181C120.361 16.9095 120.188 17.108 120.106 17.3135C120.001 17.5266 119.999 17.7809 120.099 18.0762L123.244 27.3113C123.531 28.1519 124.137 28.554 125.062 28.5176C125.366 28.5157 125.598 28.5255 125.757 28.5473C125.902 28.5994 126.001 28.7051 126.055 28.8641C126.125 29.0686 125.932 29.2482 125.478 29.4029C124.978 29.5731 124.493 29.7129 124.024 29.8222L122.99 30.1363C122.74 30.2214 122.373 30.3718 121.888 30.5875C121.313 30.8341 120.741 31.0541 120.174 31.2476C118.379 31.8588 116.877 32.0659 115.669 31.8689C114.446 31.7023 113.649 31.0737 113.278 29.9832C112.984 29.1199 112.982 28.3344 113.274 27.6267C113.565 26.919 114.062 26.3313 114.765 25.8638C114.848 25.8101 114.893 25.7567 114.901 25.7035C114.916 25.6731 114.851 25.6697 114.707 25.6934C113.858 25.8052 113.011 25.7006 112.166 25.3798C111.307 25.0894 110.726 24.5012 110.424 23.6151C109.914 22.1157 110.129 20.8506 111.071 19.8199C111.998 18.8196 113.461 17.979 115.461 17.2981L116.37 17.0645C117.173 16.8923 117.813 16.725 118.291 16.5625C118.942 16.3154 119.589 16.0569 120.232 15.7871C120.853 15.525 121.159 15.3826 121.152 15.3599L120.845 15.4644ZM118.675 24.9503C117.335 25.4068 116.417 25.9858 115.92 26.6873C115.401 27.3965 115.269 28.126 115.525 28.8757C116.066 30.466 117.484 30.8704 119.779 30.0889C120.392 29.88 120.782 29.646 120.947 29.3869C121.089 29.1355 121.095 28.8167 120.963 28.4305L119.954 25.4657C119.76 24.8977 119.334 24.7259 118.675 24.9503ZM115.503 18.5388C114.367 18.9256 113.57 19.4507 113.111 20.114C112.637 20.8078 112.559 21.6203 112.876 22.5518C113.248 23.6423 113.867 24.2682 114.733 24.4295C115.584 24.6213 116.669 24.4928 117.986 24.0441C118.872 23.7423 119.219 23.3074 119.025 22.7395L117.957 19.6043C117.571 18.4684 116.752 18.1132 115.503 18.5388Z" fill="black" fill-opacity="0.5"/>
<path d="M100.775 22.6416C101.224 22.4126 101.673 22.2641 102.124 22.1962C102.574 22.1282 102.837 22.169 102.914 22.3187C103.088 22.6608 103.004 22.919 102.662 23.0935C101.978 23.4424 101.515 23.9881 101.274 24.7306C101.044 25.4945 100.9 26.2417 100.841 26.972C100.761 27.7132 100.706 28.186 100.676 28.3901C100.564 29.1746 100.471 29.7066 100.399 29.9863C100.315 30.2982 100.183 30.5944 100.003 30.8749C99.9289 30.9936 99.892 31.0797 99.8924 31.1334C99.8824 31.2193 99.9256 31.2512 100.022 31.229C101.039 30.9525 101.909 30.9403 102.63 31.1921C103.362 31.4654 103.957 32.051 104.415 32.949C104.971 34.0394 104.953 35.1397 104.361 36.25C103.768 37.3602 102.809 38.2533 101.484 38.9293C100.907 39.2237 100.463 39.4366 100.153 39.5678L98.4686 40.3862C97.9341 40.6588 97.5868 40.8494 97.4267 40.958C97.3198 41.0125 97.1808 41.0834 97.0097 41.1706C96.8496 41.2792 96.5985 41.4208 96.2564 41.5952C95.7647 41.846 95.4697 41.8752 95.3716 41.6827C95.2953 41.5331 95.2994 41.3828 95.3841 41.2318C95.4583 41.1132 95.6019 40.9457 95.8148 40.7293C96.1451 40.4261 96.3627 40.1131 96.4675 39.7903C96.5618 39.4998 96.4944 39.13 96.2654 38.681L91.8332 29.9899C91.6588 29.6478 91.4533 29.4563 91.2169 29.4152C90.959 29.385 90.7068 29.3924 90.4603 29.4373C90.1924 29.4931 89.9996 29.5376 89.8818 29.5707C89.5816 29.616 89.3563 29.6232 89.2057 29.5922C89.0448 29.5935 88.9261 29.5193 88.8498 29.3696C88.7516 29.1772 88.9164 28.9719 89.344 28.7539C89.9426 28.4486 90.44 28.2353 90.8362 28.1141C91.3284 27.917 91.7455 27.7312 92.0876 27.5568C92.4511 27.3714 92.8357 27.1483 93.2415 26.8875C93.5295 26.6598 93.9514 26.4042 94.5073 26.1207L94.6035 26.0717C95.0311 25.8536 95.294 25.8408 95.3921 26.0332C95.4685 26.1828 95.4695 26.317 95.3953 26.4357C95.3107 26.5866 95.1619 26.7703 94.9489 26.9866C94.5121 27.398 94.2195 27.7223 94.0711 27.9596C93.9123 28.2292 93.931 28.5564 94.1272 28.9413L95.8772 32.3728C95.9208 32.4583 95.9911 32.5168 96.0879 32.5482C96.1634 32.5906 96.2439 32.5899 96.3294 32.5463C96.7788 32.371 97.0356 32.267 97.0997 32.2343C97.228 32.1689 97.3882 32.0603 97.5802 31.9085C97.804 31.7135 97.952 31.4225 98.024 31.0355C98.0856 30.6808 98.1758 29.8805 98.2948 28.6345C98.5798 25.337 99.4065 23.3394 100.775 22.6416ZM98.2148 32.7567C97.6589 33.0402 97.2584 33.2849 97.0131 33.4908C96.7574 33.729 96.6841 33.955 96.7931 34.1688L98.5922 37.6965C98.832 38.1669 99.1239 38.4222 99.4676 38.4624C99.8114 38.5026 100.336 38.3428 101.042 37.9829C101.683 37.6558 102.114 37.1265 102.333 36.3949C102.542 35.6955 102.478 35.0145 102.14 34.3517C101.747 33.582 101.169 33.0284 100.404 32.6911C99.6501 32.375 98.9204 32.3969 98.2148 32.7567Z" fill="black" fill-opacity="0.5"/>
<path d="M78.7559 35.3662C79.2078 35.0493 79.4958 34.9793 79.6198 35.1561C79.7163 35.2936 79.736 35.4263 79.6791 35.5542C79.6163 35.7155 79.4946 35.9181 79.3139 36.1621C78.984 36.5693 78.7759 36.9205 78.6896 37.2155C78.5837 37.5243 78.6617 37.8653 78.9235 38.2387L84.5251 46.2262C84.9661 46.855 85.3045 47.0867 85.5403 46.9214L87.3087 45.6812C87.741 45.378 87.9757 45.0229 88.0127 44.6159C88.0438 44.2423 87.9135 43.6594 87.6219 42.8673C87.5371 42.6629 87.5084 42.4339 87.5357 42.1802C87.563 41.9266 87.6455 41.7515 87.783 41.655C87.8616 41.5999 87.9579 41.591 88.072 41.6282C88.1861 41.6655 88.2914 41.7529 88.3878 41.8905C88.4292 41.9494 88.4853 42.0713 88.5562 42.256C88.6981 42.6255 88.9089 43.0933 89.1886 43.6593C89.4821 44.245 89.7459 44.7048 89.9802 45.0389C90.2282 45.3926 90.2049 45.6727 89.9101 45.8795C89.7726 45.9759 89.5947 46.0567 89.3765 46.1218C89.1721 46.2065 88.9874 46.2774 88.8223 46.3346C88.2149 46.5553 87.6754 46.831 87.2038 47.1618L81.1321 51.4198C80.4051 51.9297 80.017 52.2751 79.9681 52.456C79.9308 52.5701 79.8739 52.6979 79.7973 52.8396C79.7208 52.9812 79.653 53.0727 79.5941 53.114C79.5351 53.1554 79.4319 53.1545 79.2844 53.1113C79.1507 53.0879 79.0425 53.0172 78.9598 52.8993C78.8633 52.7617 78.7383 52.5416 78.5847 52.239C78.4035 51.897 78.244 51.6278 78.1062 51.4313C77.8582 51.0776 77.5216 50.6394 77.0964 50.1168L77.0551 50.0579C76.9586 49.9203 76.9015 49.7552 76.8836 49.5625C76.8599 49.4033 76.9069 49.2823 77.0248 49.1997C77.1624 49.1032 77.3354 49.0991 77.5439 49.1874C77.7465 49.3091 77.9128 49.4417 78.0427 49.5851C78.9539 50.6756 79.9106 50.8694 80.9128 50.1666L82.6812 48.9264C82.976 48.7197 82.9029 48.3019 82.4619 47.6731L76.8396 39.6561C76.5916 39.3024 76.3044 39.1227 75.978 39.1171C75.6654 39.1312 75.2447 39.221 74.7159 39.3866C74.425 39.4734 74.2029 39.5119 74.0495 39.5022C73.8903 39.5259 73.7624 39.469 73.666 39.3315C73.5419 39.1546 73.7059 38.9077 74.1578 38.5908C74.6687 38.2325 75.0922 37.9795 75.4283 37.8317C75.8489 37.5954 76.2262 37.3602 76.5602 37.1259C76.8942 36.8916 77.244 36.617 77.6094 36.3021C77.8628 36.0365 78.245 35.7245 78.7559 35.3662Z" fill="black" fill-opacity="0.5"/>
<path d="M62.5538 47.3764C62.8537 47.0998 63.2852 46.9304 63.8482 46.8683C64.3949 46.7885 64.9456 46.8193 65.5004 46.9607C66.0538 47.1359 66.4769 47.3824 66.7698 47.6999C67.2742 48.2469 67.5316 48.8093 67.5422 49.3872C67.5351 49.9814 67.3265 50.7287 66.9164 51.6293L65.242 55.2301C65.0369 55.6804 64.9479 55.991 64.9749 56.162C65.002 56.3329 65.1694 56.6029 65.4772 56.9721L66.9861 58.7146C67.4078 59.2073 67.9062 59.4822 68.4813 59.5395C69.0728 59.6144 69.6155 59.4241 70.1095 58.9685C70.3741 58.7244 70.5981 58.4363 70.7814 58.104C70.9647 57.7718 71.0795 57.4537 71.1258 57.1499C71.1883 56.8637 71.0406 56.5265 70.6827 56.1383L70.2169 55.6864C70.0868 55.5452 70.1372 55.1396 70.3681 54.4696C70.5977 53.8335 70.8448 53.3934 71.1094 53.1493C71.1977 53.068 71.2845 53.0206 71.37 53.007C71.4717 53.0112 71.5551 53.0485 71.6202 53.1191C71.8805 53.4014 72.0689 53.7827 72.1853 54.2629C72.3004 54.7771 72.3205 55.3299 72.2456 55.9214C72.15 57.0215 71.8945 58.0897 71.4789 59.1259C71.0456 60.1783 70.5643 60.9486 70.035 61.4367C69.3999 62.0224 68.6679 62.273 67.8391 62.1885C67.0089 62.1379 66.2935 61.7693 65.6929 61.0826L59.968 54.6089C59.6439 54.2222 59.288 53.9954 58.9 53.9288C58.5121 53.8621 58.1681 53.9671 57.8682 54.2437C57.4271 54.6504 57.1902 55.0484 57.1574 55.4378C57.1506 55.6073 57.1207 55.7165 57.0678 55.7653C56.9795 55.8467 56.8846 55.8853 56.7828 55.8812C56.6811 55.8771 56.5895 55.8309 56.5082 55.7427C56.4431 55.6721 56.3801 55.5507 56.3191 55.3783C56.2744 55.2237 56.2555 55.0616 56.2624 54.892C56.2844 54.3494 56.3897 53.8441 56.5785 53.3762C56.7334 52.9069 56.952 52.5421 57.2343 52.2818C58.0459 51.5333 59.1129 51.3982 60.4353 51.8764L60.5147 51.8032C60.6576 50.7899 60.8961 49.9333 61.2302 49.2335C61.548 48.516 61.9892 47.897 62.5538 47.3764ZM62.4813 49.7937C61.8638 50.3632 61.5386 51.0548 61.5056 51.8688C61.4974 52.0722 61.54 52.2778 61.6335 52.4854C61.727 52.693 61.9032 52.9549 62.1622 53.2711L63.3051 54.6167L63.4515 54.7755C63.5817 54.9166 63.6888 54.9974 63.7729 55.0178C63.8733 55.0558 63.9676 55.0342 64.0558 54.9528C64.1617 54.8552 64.2974 54.6484 64.4631 54.3324C65.0524 53.2013 65.3784 52.2804 65.4412 51.5696C65.5039 50.8587 65.3807 50.3357 65.0716 50.0005C64.6648 49.5594 64.2241 49.3293 63.7493 49.31C63.2569 49.3071 62.8342 49.4683 62.4813 49.7937Z" fill="black" fill-opacity="0.5"/>
<path d="M49.9354 59.9243C50.2546 59.5343 50.6068 59.2177 50.9918 58.9746C51.3768 58.7315 51.6344 58.6631 51.7644 58.7695C52.0615 59.0128 52.0885 59.2829 51.8453 59.5801C51.3589 60.1744 51.1545 60.86 51.232 61.6368C51.3282 62.4288 51.4961 63.1709 51.7358 63.8633C51.9603 64.5743 52.0995 65.0294 52.1535 65.2286C52.3662 65.9919 52.4953 66.5163 52.5409 66.8016C52.5898 67.1208 52.588 67.445 52.5357 67.7743C52.5154 67.9128 52.5162 68.0065 52.5381 68.0555C52.5635 68.1382 52.6158 68.15 52.6952 68.0909C53.516 67.4291 54.3071 67.0687 55.0687 67.0097C55.8489 66.9659 56.629 67.2632 57.409 67.9016C58.3562 68.6768 58.7816 69.6918 58.6852 70.9464C58.5888 72.2011 58.0694 73.4041 57.1269 74.5557C56.7165 75.0571 56.3956 75.4303 56.1643 75.6751L54.9508 77.101C54.5708 77.5653 54.3292 77.8793 54.2262 78.0431C54.1502 78.136 54.0514 78.2567 53.9298 78.4053C53.8268 78.5691 53.6537 78.7995 53.4105 79.0967C53.0609 79.5239 52.8025 79.6691 52.6353 79.5323C52.5053 79.4259 52.4488 79.2865 52.4657 79.1143C52.486 78.9758 52.5501 78.7648 52.6583 78.4811C52.839 78.0708 52.9125 77.6968 52.8788 77.359C52.8484 77.0551 52.6382 76.7435 52.2482 76.4243L44.6984 70.2454C44.4012 70.0021 44.1361 69.9092 43.903 69.9666C43.6548 70.0426 43.4268 70.1506 43.2191 70.2907C42.9962 70.4494 42.8374 70.5676 42.7429 70.6453C42.4862 70.8074 42.2827 70.9044 42.1324 70.9365C41.9855 71.0023 41.847 70.982 41.717 70.8756C41.5498 70.7388 41.6183 70.4847 41.9223 70.1132C42.3479 69.5932 42.7177 69.1981 43.0319 68.928C43.4034 68.5498 43.7108 68.2121 43.954 67.9149C44.2124 67.5992 44.475 67.2404 44.7419 66.8385C44.9142 66.5143 45.1979 66.1108 45.5931 65.6279L45.6615 65.5443C45.9655 65.1729 46.2011 65.0555 46.3683 65.1924C46.4983 65.2988 46.5532 65.4212 46.5329 65.5597C46.516 65.7319 46.4535 65.9598 46.3453 66.2435C46.1105 66.7957 45.9729 67.2102 45.9323 67.4871C45.8951 67.7978 46.0437 68.09 46.378 68.3636L49.3589 70.8033C49.4332 70.8641 49.521 70.8894 49.6223 70.8793C49.7084 70.8877 49.7819 70.8548 49.8427 70.7805C50.1839 70.4395 50.3772 70.2411 50.4228 70.1854C50.514 70.0739 50.6171 69.9101 50.7319 69.694C50.8586 69.4255 50.8772 69.0996 50.7878 68.7163C50.7017 68.3667 50.4629 67.5975 50.0713 66.4087C49.0079 63.2744 48.9626 61.113 49.9354 59.9243ZM51.6538 70.2159C51.2586 70.6988 50.9901 71.0838 50.8482 71.3708C50.7097 71.6917 50.7333 71.9281 50.919 72.0801L53.9835 74.5881C54.3921 74.9225 54.7619 75.0391 55.0929 74.9378C55.4239 74.8366 55.8402 74.4795 56.3418 73.8666C56.7978 73.3094 56.9795 72.6517 56.8867 71.8935C56.7973 71.1691 56.4647 70.5712 55.889 70.1C55.2203 69.5528 54.4681 69.2783 53.6322 69.2765C52.8149 69.2899 52.1555 69.603 51.6538 70.2159Z" fill="black" fill-opacity="0.5"/>
<path d="M19.7979 110.027C19.9118 109.711 20.2045 109.536 20.676 109.502L32.484 108.591C32.6665 108.58 32.7659 108.552 32.7821 108.507C32.8065 108.439 32.7438 108.366 32.5939 108.286C32.3618 108.151 31.2315 107.642 29.2031 106.758C27.1665 105.897 25.6597 105.264 24.6825 104.861C24.2761 104.715 23.9613 104.703 23.7381 104.827C23.515 104.951 23.2584 105.203 22.9683 105.583C22.7804 105.821 22.6209 105.981 22.4899 106.061C22.3733 106.172 22.236 106.199 22.078 106.142C21.8748 106.069 21.8545 105.806 22.0173 105.355C22.2207 104.79 22.4132 104.362 22.5949 104.071C22.7702 103.726 22.9311 103.35 23.0775 102.944C23.2077 102.582 23.2991 102.258 23.3515 101.971C23.357 101.743 23.4533 101.37 23.6405 100.85C23.8032 100.399 23.9862 100.21 24.1894 100.283C24.3249 100.332 24.4061 100.425 24.4332 100.562C24.4602 100.699 24.4719 100.844 24.4683 100.996C24.4565 101.17 24.4496 101.295 24.4478 101.371C24.4124 101.894 24.429 102.308 24.4976 102.613C24.5806 102.949 24.8171 103.213 25.2073 103.405L33.7728 107.563C34.6886 107.995 35.47 107.703 36.1171 106.686C36.2354 106.499 36.3836 106.335 36.5616 106.195C36.7315 106.078 36.8954 106.048 37.0535 106.105C37.2341 106.17 37.239 106.44 37.0681 106.914L36.622 107.939L36.1882 108.931L35.7216 110.332C35.6647 110.49 35.4763 110.588 35.1566 110.625L23.7061 111.818C23.4171 111.842 23.2563 111.898 23.2237 111.989C23.1993 112.056 23.2724 112.172 23.4431 112.336L30.3089 118.981L30.9442 119.554C31.6431 120.163 31.9763 120.513 31.9437 120.603L31.541 121.721C31.3701 122.195 31.2015 122.734 31.0351 123.337C30.8831 123.971 30.7909 124.333 30.7584 124.423C30.5956 124.875 30.4127 125.064 30.2095 124.991C29.9385 124.893 29.8289 124.56 29.8805 123.992C29.9304 123.5 29.9138 123.086 29.8308 122.75C29.7704 122.422 29.5483 122.189 29.1644 122.051C27.4936 121.448 25.6024 120.856 23.4907 120.274L19.5904 119.098C19.1759 118.974 18.8489 118.997 18.6095 119.165C18.3619 119.357 18.0696 119.672 17.7326 120.112C17.5446 120.351 17.3851 120.51 17.2541 120.59C17.1376 120.701 17.0003 120.728 16.8422 120.671C16.639 120.598 16.6188 120.336 16.7815 119.884C16.9931 119.297 17.2019 118.824 17.4079 118.465C17.6321 117.984 17.8092 117.563 17.9394 117.202C18.0696 116.841 18.2016 116.404 18.3355 115.891C18.406 115.482 18.5471 114.985 18.7586 114.398C18.9214 113.946 19.1043 113.757 19.3076 113.83C19.4656 113.887 19.5582 113.984 19.5852 114.122C19.6267 114.29 19.6438 114.525 19.6365 114.829C19.6011 115.352 19.6258 115.743 19.7106 116.003C19.7873 116.286 20.0402 116.505 20.4691 116.659C23.2689 117.668 25.9391 118.541 28.4797 119.278C28.7055 119.36 28.8347 119.355 28.8672 119.265C28.8998 119.175 28.8009 119.024 28.5706 118.814L20.1323 110.798C19.9616 110.635 19.8587 110.496 19.8235 110.381C19.7576 110.281 19.749 110.163 19.7979 110.027Z" fill="black" fill-opacity="0.5"/>
<path d="M13.9168 130.908C13.9922 130.507 14.2371 130.113 14.6516 129.727C15.0425 129.337 15.5027 129.033 16.0321 128.815C16.5806 128.625 17.0671 128.57 17.4917 128.65C18.2229 128.787 18.7653 129.084 19.1189 129.542C19.468 130.022 19.747 130.747 19.9559 131.714L20.7632 135.602C20.8677 136.086 20.9818 136.388 21.1056 136.509C21.2293 136.63 21.5249 136.746 21.9922 136.859L24.2432 137.355C24.8756 137.499 25.4395 137.421 25.9351 137.124C26.4542 136.831 26.7758 136.354 26.9 135.694C26.9665 135.34 26.9741 134.975 26.9227 134.599C26.8713 134.223 26.7734 133.899 26.6291 133.628C26.5083 133.361 26.1885 133.179 25.6696 133.081L25.0261 132.997C24.8374 132.961 24.6356 132.606 24.4207 131.931C24.225 131.283 24.1604 130.783 24.2269 130.429C24.2491 130.311 24.2904 130.221 24.3509 130.159C24.4349 130.102 24.5241 130.082 24.6185 130.1C24.9959 130.171 25.3747 130.364 25.7549 130.68C26.1542 131.023 26.5005 131.455 26.7936 131.974C27.374 132.913 27.8069 133.923 28.0924 135.002C28.3734 136.105 28.4473 137.01 28.3143 137.718C28.1546 138.567 27.7172 139.205 27.0019 139.632C26.3058 140.087 25.5118 140.219 24.6199 140.027L16.162 138.253C15.6711 138.137 15.2502 138.167 14.8992 138.346C14.5482 138.524 14.3351 138.813 14.2597 139.214C14.1488 139.804 14.1965 140.265 14.4027 140.597C14.4984 140.737 14.5397 140.842 14.5264 140.913C14.5042 141.031 14.4511 141.118 14.367 141.176C14.2829 141.233 14.1819 141.251 14.064 141.229C13.9697 141.211 13.8466 141.151 13.6948 141.049C13.5666 140.952 13.4546 140.833 13.3588 140.693C13.0524 140.245 12.8352 139.777 12.7072 139.289C12.5511 138.82 12.5086 138.397 12.5796 138.019C12.7836 136.934 13.5587 136.189 14.905 135.782L14.9249 135.676C14.4345 134.778 14.1142 133.949 13.9643 133.188C13.7907 132.423 13.7749 131.663 13.9168 130.908ZM15.3024 132.89C15.1471 133.716 15.2993 134.465 15.759 135.137C15.8739 135.305 16.0308 135.445 16.2298 135.555C16.4287 135.666 16.7265 135.771 17.123 135.87L18.8434 136.267L19.0556 136.306C19.2443 136.342 19.3785 136.343 19.4581 136.309C19.5613 136.279 19.624 136.206 19.6462 136.088C19.6728 135.946 19.6582 135.699 19.6024 135.347C19.3996 134.088 19.1111 133.154 18.7369 132.547C18.3628 131.939 17.9516 131.593 17.5035 131.509C16.9138 131.398 16.4228 131.477 16.0305 131.745C15.6338 132.037 15.3911 132.418 15.3024 132.89Z" fill="black" fill-opacity="0.5"/>
<path d="M11.4284 151.484C11.4574 150.933 11.5797 150.663 11.7954 150.674C11.9632 150.683 12.0799 150.749 12.1455 150.873C12.2338 151.022 12.3183 151.243 12.3991 151.535C12.5164 152.046 12.6646 152.426 12.8438 152.676C13.0216 152.95 13.3383 153.099 13.7936 153.123L23.5362 153.635C24.3031 153.675 24.6941 153.552 24.7093 153.264L24.8227 151.107C24.8504 150.58 24.7154 150.176 24.4177 149.896C24.1427 149.641 23.6035 149.385 22.7999 149.126C22.5868 149.067 22.3887 148.948 22.2058 148.77C22.0229 148.593 21.9358 148.42 21.9447 148.252C21.9497 148.156 22.002 148.075 22.1017 148.008C22.2013 147.941 22.335 147.912 22.5028 147.921C22.5747 147.925 22.7053 147.956 22.8945 148.014C23.2729 148.13 23.7712 148.252 24.3893 148.381C25.0313 148.51 25.5561 148.586 25.9635 148.608C26.3949 148.63 26.6012 148.821 26.5823 149.181C26.5735 149.349 26.5274 149.538 26.4442 149.75C26.3849 149.964 26.3269 150.153 26.2701 150.318C26.0696 150.932 25.9542 151.527 25.924 152.102L25.5345 159.508C25.4879 160.395 25.5207 160.913 25.633 161.063C25.6998 161.163 25.7654 161.287 25.8298 161.434C25.8941 161.582 25.9244 161.692 25.9206 161.763C25.9168 161.835 25.8525 161.916 25.7276 162.006C25.6267 162.096 25.5044 162.138 25.3606 162.131C25.1928 162.122 24.9424 162.085 24.6094 162.019C24.2284 161.951 23.9181 161.911 23.6785 161.898C23.2471 161.875 22.6946 161.87 22.021 161.883L21.9491 161.879C21.7813 161.87 21.6161 161.813 21.4533 161.709C21.3133 161.629 21.2471 161.518 21.2546 161.374C21.2635 161.206 21.3669 161.067 21.5649 160.958C21.7857 160.873 21.9925 160.824 22.1855 160.81C23.6059 160.765 24.3482 160.131 24.4125 158.908L24.5259 156.751C24.5448 156.392 24.1708 156.192 23.4038 156.152L13.6254 155.637C13.1939 155.615 12.8754 155.73 12.6698 155.984C12.4882 156.238 12.2997 156.625 12.1042 157.144C11.9932 157.426 11.8866 157.625 11.7844 157.74C11.705 157.88 11.5813 157.945 11.4136 157.936C11.1979 157.925 11.1045 157.644 11.1335 157.093C11.1663 156.469 11.2281 155.98 11.3189 155.624C11.392 155.147 11.4393 154.705 11.4607 154.298C11.4821 153.89 11.4815 153.446 11.4588 152.964C11.4058 152.601 11.3956 152.107 11.4284 151.484Z" fill="black" fill-opacity="0.5"/>
<path d="M11.0933 169.137C11.0469 168.563 11.1313 168.268 11.3466 168.25C11.514 168.237 11.6385 168.287 11.7199 168.4C11.8272 168.536 11.9403 168.744 12.0593 169.023C12.2454 169.538 12.4319 169.908 12.6187 170.134C12.8295 170.357 13.1501 170.452 13.5807 170.417L23.4125 169.621C23.8671 169.584 24.1703 169.463 24.3222 169.258C24.4981 169.051 24.6294 168.74 24.7161 168.323C24.7885 168.029 24.8548 167.806 24.915 167.657C25.001 167.53 25.1277 167.459 25.2951 167.446C25.5104 167.428 25.6394 167.683 25.682 168.209C25.7304 168.807 25.7304 169.252 25.6819 169.545C25.665 169.932 25.6731 170.329 25.706 170.735C25.737 171.118 25.7938 171.523 25.8765 171.949C25.9735 172.255 26.0452 172.694 26.0917 173.268C26.1382 173.843 26.0538 174.138 25.8385 174.156C25.671 174.169 25.5336 174.108 25.4263 173.972C25.3449 173.859 25.2447 173.662 25.1258 173.383C24.9454 172.94 24.7499 172.607 24.5391 172.383C24.3543 172.181 24.0465 172.098 23.6159 172.133L19.9918 172.426C19.8961 172.434 19.8272 172.475 19.7852 172.551C19.7451 172.651 19.7519 172.734 19.8056 172.802C19.9167 172.986 20.0156 173.315 20.1022 173.79C20.1907 174.288 20.2524 174.753 20.2873 175.183C20.3396 175.829 20.2532 176.546 20.0281 177.335C19.827 178.122 19.4257 178.817 18.8244 179.419C18.2489 180.044 17.4588 180.396 16.4541 180.478C14.947 180.6 13.7882 180.116 12.9776 179.026C12.1669 177.935 11.689 176.493 11.5437 174.699C11.4933 174.077 11.4895 173.584 11.5322 173.219C11.5413 172.737 11.5294 172.293 11.4965 171.886C11.4636 171.479 11.4038 171.039 11.3172 170.564C11.2164 170.211 11.1418 169.735 11.0933 169.137ZM12.5775 174.977C12.6472 175.838 12.9823 176.557 13.5829 177.135C14.2074 177.71 15.022 177.957 16.0267 177.876C17.1989 177.781 18.0368 177.424 18.5405 176.805C19.0701 176.209 19.2884 175.336 19.1954 174.188C19.1431 173.542 19.0226 173.094 18.8338 172.845C18.7265 172.709 18.5872 172.624 18.4159 172.59C18.2704 172.577 18.09 172.58 17.8747 172.597L14.1429 172.9C13.6167 172.942 13.2145 173.179 12.9364 173.611C12.6584 174.043 12.5387 174.498 12.5775 174.977Z" fill="black" fill-opacity="0.5"/>
<path d="M15.6985 217.019C15.6432 216.886 15.6941 216.696 15.8511 216.448C16.0174 216.223 16.2179 216.049 16.4524 215.925C17.3425 215.503 18.0259 215.115 18.5024 214.761C18.966 214.438 19.4047 214.087 19.8185 213.707C19.8979 213.648 20.0014 213.553 20.1288 213.422C20.2877 213.304 20.4225 213.221 20.5333 213.175C20.8436 213.046 21.0586 213.126 21.1784 213.414C21.2337 213.547 21.2733 213.673 21.2972 213.793C21.3211 213.913 21.3515 214.018 21.3884 214.106C22.2916 216.278 25.8566 216.069 32.0836 213.479C32.6819 213.23 33.043 212.911 33.167 212.522C33.3223 212.145 33.3374 211.619 33.2123 210.943C33.1792 210.801 33.1682 210.65 33.1794 210.489C33.222 210.342 33.3208 210.236 33.4759 210.171C33.5867 210.125 33.7233 210.172 33.8857 210.313C34.0573 210.475 34.1661 210.612 34.2122 210.723C34.3412 211.033 34.4481 211.352 34.5328 211.681L34.859 212.559L37.7482 219.506L38.1685 220.423C38.3603 220.759 38.5207 221.082 38.6497 221.393C38.6958 221.503 38.7114 221.666 38.6965 221.88C38.6908 222.116 38.6325 222.258 38.5217 222.304C38.3666 222.368 38.2171 222.352 38.0732 222.256C37.9606 222.173 37.8656 222.07 37.7881 221.946C37.5336 221.584 37.2938 221.32 37.0687 221.153C36.8528 221.009 36.5556 220.951 36.1771 220.978C35.8078 221.028 35.3019 221.186 34.6592 221.454L27.3464 224.495C26.8146 224.716 26.472 224.924 26.3186 225.117C26.1653 225.311 26.1808 225.63 26.3651 226.073C26.4112 226.184 26.4775 226.312 26.5642 226.458C26.6601 226.626 26.7495 226.81 26.8325 227.009C26.9984 227.408 26.9816 227.649 26.7821 227.732C26.7157 227.759 26.6557 227.771 26.6021 227.768C26.4951 227.76 26.2431 227.748 25.8461 227.731C25.4585 227.736 24.9313 227.813 24.2648 227.96C23.576 228.116 22.746 228.371 21.7747 228.723C21.5217 228.802 21.2522 228.81 20.9661 228.747C20.6892 228.706 20.5231 228.619 20.4678 228.486C20.2743 228.021 20.5764 227.622 21.3741 227.291L22.8173 226.73C23.4156 226.481 23.8404 226.252 24.0916 226.044C24.3206 225.844 24.438 225.627 24.4437 225.39C24.4586 225.176 24.3877 224.881 24.2311 224.504L21.3694 217.623C21.1114 217.003 20.7406 216.611 20.257 216.448C19.7734 216.286 19.0441 216.407 18.0691 216.813L17.1854 217.219C16.3876 217.551 15.892 217.484 15.6985 217.019ZM24.5209 221.732C24.7144 222.198 24.8786 222.467 25.0133 222.541C25.148 222.615 25.4259 222.564 25.8469 222.389L34.4561 218.809C35.4311 218.403 35.8449 218.023 35.6974 217.669L34.4671 214.71C34.3104 214.334 33.7445 214.348 32.7695 214.754C30.9081 215.528 29.1751 216.08 27.5706 216.409C25.9882 216.729 24.4226 216.808 22.8738 216.647C22.8646 216.625 22.8332 216.612 22.7797 216.608C22.7261 216.604 22.6772 216.612 22.6329 216.63C22.4999 216.685 22.4979 216.868 22.627 217.178L24.5209 221.732Z" fill="black" fill-opacity="0.5"/>
<path d="M29.3319 235.569C29.0807 235.16 29.0471 234.899 29.2311 234.786C29.3743 234.698 29.508 234.686 29.6321 234.751C29.7893 234.823 29.9841 234.957 30.2167 235.152C30.6157 235.527 30.9496 235.772 31.2184 235.889C31.5076 235.993 31.8362 235.932 32.2044 235.706L40.6095 230.543C40.9777 230.317 41.1705 230.058 41.188 229.765C41.2386 229.481 41.2059 229.107 41.0899 228.643C41.021 228.347 40.9795 228.119 40.9655 227.959C40.9845 227.806 41.0656 227.686 41.2088 227.598C41.3928 227.485 41.6105 227.633 41.8617 228.042C42.1882 228.574 42.4151 229.012 42.5421 229.356C42.7524 229.79 42.9581 230.171 43.1591 230.498C43.3726 230.846 43.6129 231.191 43.8798 231.534C44.1045 231.762 44.3864 232.153 44.7255 232.705C44.9767 233.114 45.0103 233.375 44.8263 233.488C44.6831 233.576 44.533 233.583 44.3758 233.511C44.2516 233.446 44.0733 233.317 43.8408 233.121C43.4794 232.808 43.1541 232.6 42.8649 232.496C42.6087 232.399 42.2965 232.464 41.9284 232.69L35.7933 236.459C35.7319 236.496 35.6957 236.575 35.6846 236.694C35.6939 236.801 35.7316 236.863 35.7976 236.879L45.4394 239.026C45.4929 239.021 45.5526 239.027 45.6186 239.043C45.6847 239.058 45.7688 239.035 45.8711 238.972C46.2392 238.746 46.4343 238.513 46.4566 238.274C46.4992 238.023 46.4626 237.665 46.3466 237.201C46.2777 236.906 46.2362 236.678 46.2222 236.517C46.2412 236.365 46.3223 236.245 46.4654 236.157C46.6495 236.044 46.8671 236.192 47.1184 236.601C47.4575 237.153 47.678 237.581 47.78 237.884C47.9652 238.277 48.1645 238.648 48.3781 238.995C48.579 239.323 48.8256 239.678 49.1177 240.062C49.3675 240.331 49.6556 240.732 49.9822 241.263C50.2334 241.672 50.267 241.933 50.083 242.046C49.9398 242.134 49.7896 242.142 49.6325 242.07C49.5083 242.005 49.33 241.875 49.0974 241.68C48.7235 241.346 48.3857 241.117 48.0839 240.993C47.8151 240.876 47.4967 240.931 47.1286 241.157L38.7234 246.32C38.3553 246.546 38.1687 246.815 38.1638 247.128C38.1588 247.441 38.2229 247.866 38.3561 248.404C38.425 248.7 38.4499 248.924 38.4309 249.076C38.445 249.237 38.3804 249.361 38.2372 249.449C38.0532 249.562 37.8355 249.414 37.5843 249.005C37.2577 248.473 37.0184 248.015 36.8662 247.629C36.6307 247.154 36.4125 246.753 36.2116 246.426C36.0106 246.099 35.7515 245.723 35.4343 245.298C35.1719 245.008 34.8712 244.587 34.5321 244.035C34.2808 243.626 34.2473 243.365 34.4313 243.252C34.5745 243.164 34.7081 243.153 34.8323 243.217C34.9894 243.29 35.1843 243.423 35.4168 243.619C35.8033 243.973 36.1309 244.208 36.3997 244.325C36.7015 244.449 37.0364 244.398 37.4045 244.172L43.9385 240.159C43.9998 240.121 44.0447 240.08 44.073 240.034C44.1014 239.989 44.0825 239.958 44.0165 239.942L33.9172 237.738C33.8182 237.714 33.6868 237.752 33.5232 237.853C33.1551 238.079 32.9623 238.338 32.9447 238.631C32.9398 238.944 33.0101 239.379 33.1559 239.938C33.2248 240.233 33.2498 240.457 33.2308 240.61C33.2448 240.77 33.1802 240.894 33.0371 240.982C32.853 241.095 32.6354 240.947 32.3842 240.538C32.0576 240.007 31.8182 239.548 31.666 239.163C31.4306 238.688 31.2124 238.287 31.0114 237.959C30.8104 237.632 30.5513 237.256 30.2341 236.831C29.9718 236.542 29.671 236.121 29.3319 235.569Z" fill="black" fill-opacity="0.5"/>
<path d="M46.5274 260.837C45.8646 260.046 45.332 259.131 44.9297 258.09C44.5428 257.068 44.5239 256.316 44.8729 255.836C45.1607 255.47 45.4165 255.177 45.6403 254.958C45.864 254.74 46.1046 254.522 46.3621 254.306C46.5829 254.121 46.7793 254.019 46.9513 254.001C47.1417 253.966 47.2909 254.013 47.3988 254.142C47.4759 254.234 47.3387 254.631 46.9872 255.333C46.5289 256.28 46.3345 257.132 46.4042 257.888C46.4892 258.662 46.763 259.325 47.2254 259.877C47.8574 260.631 48.5777 261.061 49.3861 261.166C50.2284 261.274 51.0542 260.989 51.8636 260.311C52.4707 259.803 52.8793 259.225 53.0896 258.579C53.3153 257.952 53.2123 257.381 52.7807 256.866C52.6728 256.737 52.4834 256.567 52.2124 256.355C51.9414 256.144 51.7134 255.928 51.5284 255.707C51.3126 255.45 51.1736 255.191 51.1115 254.93C51.0677 254.653 51.147 254.43 51.3493 254.261C51.8092 253.875 52.3552 254.06 52.9872 254.814C53.0796 254.924 53.1985 255.122 53.3437 255.407C53.5043 255.711 53.6617 255.955 53.8158 256.139C54.1087 256.489 54.5363 256.663 55.0987 256.661C55.6764 256.678 56.2228 256.471 56.7379 256.039C57.3817 255.499 57.7949 254.871 57.9773 254.155C58.1935 253.441 58.0088 252.735 57.423 252.036C56.606 251.061 55.3083 250.708 53.5298 250.977C53.2872 251.024 53.0078 251.102 52.6916 251.21C52.3753 251.319 52.1312 251.382 51.9592 251.401C51.821 251.423 51.7133 251.388 51.6363 251.296C51.5284 251.167 51.505 251.046 51.5661 250.932C51.6457 250.803 51.7958 250.646 52.0166 250.461C52.3477 250.183 52.7019 249.933 53.0793 249.711L53.7281 249.308C54.2004 248.975 54.575 248.88 54.852 249.024C56.4704 249.797 57.6188 250.588 58.297 251.398C59.2682 252.557 59.806 253.703 59.9105 254.836C60.0304 255.988 59.6672 256.919 58.821 257.628C58.122 258.214 57.4329 258.494 56.7537 258.468C56.09 258.461 55.3996 258.272 54.6826 257.902C54.4703 257.798 54.4059 257.852 54.4894 258.064C55.3671 259.896 55.1621 261.352 53.8745 262.431C52.9731 263.186 52.0322 263.52 51.0517 263.434C50.0896 263.332 49.2145 263.016 48.4264 262.487C47.6383 261.958 47.0053 261.408 46.5274 260.837Z" fill="black" fill-opacity="0.5"/>
<path d="M57.8959 273.386C57.5955 273.11 57.3912 272.694 57.2829 272.138C57.1583 271.6 57.1436 271.048 57.2387 270.484C57.3678 269.918 57.5785 269.476 57.8708 269.158C58.3743 268.61 58.9136 268.307 59.4887 268.249C60.0814 268.207 60.8434 268.353 61.7747 268.688L65.5013 270.06C65.967 270.227 66.2839 270.29 66.452 270.249C66.6201 270.208 66.8754 270.019 67.218 269.682L68.8302 268.034C69.2864 267.573 69.5193 267.054 69.529 266.476C69.5548 265.88 69.3204 265.355 68.8257 264.9C68.5606 264.657 68.255 264.457 67.9088 264.302C67.5625 264.147 67.2361 264.059 66.9294 264.038C66.6391 263.999 66.3152 264.174 65.9579 264.563L65.5459 265.064C65.4159 265.205 65.0076 265.189 64.3208 265.014C63.6679 264.837 63.2089 264.627 62.9439 264.384C62.8556 264.302 62.8011 264.22 62.7806 264.136C62.7763 264.034 62.8067 263.948 62.8716 263.877C63.1315 263.594 63.496 263.375 63.965 263.22C64.468 263.063 65.0172 262.997 65.6128 263.023C66.7171 263.027 67.8027 263.194 68.8696 263.523C69.9542 263.868 70.7616 264.284 71.2916 264.771C71.9277 265.356 72.2378 266.065 72.2219 266.898C72.2399 267.729 71.9315 268.473 71.2967 269.128L65.3171 275.367C64.9583 275.722 64.7617 276.095 64.7273 276.487C64.6928 276.879 64.8258 277.214 65.1261 277.49C65.5679 277.896 65.9841 278.099 66.3748 278.1C66.5443 278.092 66.6556 278.113 66.7086 278.162C66.797 278.243 66.8433 278.335 66.8476 278.436C66.8518 278.538 66.8134 278.633 66.7322 278.721C66.6672 278.792 66.5514 278.865 66.3847 278.94C66.2342 278.997 66.0742 279.029 65.9046 279.037C65.3621 279.059 64.8498 278.996 64.3679 278.846C63.8875 278.731 63.5059 278.543 63.2232 278.283C62.4104 277.536 62.1878 276.484 62.5553 275.126L62.4758 275.053C61.4542 274.994 60.5809 274.827 59.8559 274.552C59.1147 274.295 58.4613 273.906 57.8959 273.386ZM60.311 273.259C60.9294 273.828 61.6456 274.095 62.4594 274.06C62.6629 274.052 62.8642 273.992 63.0634 273.882C63.2626 273.772 63.5091 273.575 63.8029 273.29L65.0497 272.04L65.1958 271.881C65.3258 271.74 65.3974 271.627 65.4108 271.541C65.4405 271.438 65.4111 271.346 65.3227 271.265C65.2167 271.167 64.9994 271.049 64.6709 270.91C63.495 270.416 62.5504 270.167 61.8368 270.163C61.1232 270.159 60.6122 270.325 60.3036 270.661C59.8975 271.102 59.7045 271.561 59.7245 272.035C59.7621 272.526 59.9576 272.934 60.311 273.259Z" fill="black" fill-opacity="0.5"/>
<path d="M71.6569 284.862C71.259 284.594 71.1204 284.37 71.2412 284.191C71.3351 284.051 71.4519 283.985 71.5917 283.993C71.7647 283.994 71.9975 284.035 72.2899 284.116C72.8082 284.292 73.2138 284.378 73.5067 284.373C73.8131 284.348 74.087 284.156 74.3285 283.798L79.8438 275.62C80.0853 275.262 80.1536 274.946 80.0485 274.672C79.9768 274.392 79.7921 274.065 79.4946 273.691C79.3095 273.45 79.1774 273.26 79.0983 273.12C79.0524 272.973 79.0765 272.83 79.1704 272.691C79.2912 272.512 79.5506 272.556 79.9485 272.825C80.4659 273.173 80.8537 273.478 81.1119 273.739C81.483 274.048 81.8277 274.309 82.1461 274.524C82.4844 274.752 82.846 274.967 83.231 275.169C83.5299 275.283 83.948 275.522 84.4853 275.884C84.8832 276.153 85.0218 276.376 84.9011 276.555C84.8071 276.695 84.6736 276.764 84.5006 276.763C84.3608 276.755 84.1447 276.711 83.8523 276.63C83.3937 276.494 83.0112 276.439 82.7049 276.464C82.4319 276.482 82.1746 276.671 81.9331 277.029L77.9073 282.998C77.8671 283.058 77.8666 283.144 77.906 283.258C77.9587 283.351 78.0184 283.391 78.085 283.379L87.7511 281.343C87.7979 281.317 87.8546 281.297 87.9212 281.284C87.9878 281.271 88.0547 281.215 88.1218 281.116C88.3633 280.757 88.4448 280.465 88.3661 280.238C88.3008 279.992 88.1194 279.681 87.8219 279.307C87.6368 279.066 87.5047 278.876 87.4256 278.735C87.3797 278.589 87.4038 278.446 87.4977 278.307C87.6185 278.127 87.8779 278.172 88.2758 278.44C88.8131 278.803 89.1909 279.101 89.4093 279.335C89.7406 279.616 90.0754 279.871 90.4137 280.099C90.7321 280.314 91.1037 280.536 91.5285 280.764C91.8672 280.906 92.2952 281.151 92.8126 281.5C93.2105 281.768 93.3491 281.992 93.2283 282.171C93.1344 282.31 93.0009 282.38 92.8278 282.379C92.6881 282.371 92.472 282.327 92.1796 282.245C91.7011 282.096 91.2987 282.028 90.9725 282.039C90.6796 282.044 90.4124 282.226 90.1708 282.584L84.6556 290.762C84.414 291.12 84.3557 291.443 84.4807 291.73C84.6056 292.017 84.84 292.377 85.1838 292.812C85.3689 293.053 85.4844 293.246 85.5302 293.393C85.6093 293.533 85.6019 293.673 85.508 293.812C85.3872 293.991 85.1279 293.947 84.7299 293.678C84.2125 293.329 83.8049 293.011 83.5069 292.723C83.0959 292.388 82.7313 292.113 82.4129 291.899C82.0946 291.684 81.7031 291.449 81.2385 291.193C80.8799 291.038 80.4319 290.78 79.8947 290.417C79.4967 290.149 79.3581 289.925 79.4789 289.746C79.5728 289.607 79.6897 289.541 79.8294 289.548C80.0025 289.549 80.2353 289.59 80.5277 289.672C81.0261 289.834 81.4217 289.913 81.7146 289.908C82.0409 289.896 82.3247 289.711 82.5663 289.353L86.8537 282.996C86.8939 282.936 86.9175 282.88 86.9245 282.827C86.9314 282.773 86.9016 282.753 86.8349 282.766L76.7288 284.939C76.6288 284.958 76.5252 285.048 76.4178 285.207C76.1763 285.565 76.108 285.881 76.2131 286.154C76.338 286.441 76.5824 286.809 76.9461 287.256C77.1312 287.497 77.2466 287.691 77.2924 287.837C77.3716 287.978 77.3642 288.117 77.2702 288.257C77.1495 288.436 76.8901 288.391 76.4921 288.123C75.9748 287.774 75.5671 287.455 75.2691 287.168C74.8582 286.833 74.4935 286.558 74.1752 286.343C73.8568 286.128 73.4653 285.893 73.0007 285.638C72.6421 285.483 72.1942 285.224 71.6569 284.862ZM87.7156 274.893C86.7804 274.262 86.1323 273.463 85.7714 272.496C85.4303 271.542 85.5416 270.648 86.1052 269.812C86.4407 269.315 86.8118 269 87.2185 268.869C87.6253 268.738 87.9878 268.78 88.3062 268.995C88.6047 269.196 88.7831 269.447 88.8414 269.747C88.933 270.04 88.8983 270.306 88.7373 270.545L88.0231 271.54C87.8218 271.838 87.813 272.237 87.9967 272.738C88.2137 273.231 88.561 273.639 89.0386 273.961C89.536 274.297 90.111 274.453 90.7634 274.43C91.4159 274.407 92.113 274.124 92.8548 273.582C93.1889 273.344 93.4193 273.196 93.5461 273.137C93.6928 273.091 93.8059 273.095 93.8855 273.148C94.0447 273.256 94.0304 273.449 93.8425 273.727C93.0642 274.881 92.0922 275.529 90.9266 275.669C89.7808 275.822 88.7105 275.564 87.7156 274.893Z" fill="black" fill-opacity="0.5"/>
<path d="M93.3022 298.531C92.8005 298.301 92.5946 298.088 92.6847 297.892C92.7547 297.739 92.8593 297.655 92.9984 297.64C93.1693 297.612 93.4056 297.615 93.7074 297.648C94.2474 297.737 94.6615 297.755 94.9497 297.703C95.2479 297.628 95.487 297.395 95.6671 297.002L99.7791 288.036C99.9592 287.643 99.9752 287.321 99.8271 287.068C99.7108 286.803 99.4754 286.51 99.1209 286.19C98.8992 285.982 98.7378 285.816 98.637 285.69C98.5679 285.553 98.5684 285.408 98.6384 285.255C98.7285 285.059 99.0244 285.076 99.5261 285.306C100.093 285.566 100.504 285.794 100.757 285.989C101.13 286.213 101.502 286.41 101.873 286.58C102.222 286.74 102.602 286.888 103.015 287.025C103.329 287.09 103.758 287.247 104.304 287.497C104.805 287.727 105.011 287.94 104.921 288.137C104.851 288.289 104.731 288.379 104.56 288.407C104.421 288.422 104.2 288.413 103.898 288.381C103.424 288.321 103.038 288.329 102.739 288.403C102.473 288.466 102.25 288.694 102.07 289.086L100.494 292.522C100.434 292.653 100.513 292.769 100.731 292.869L106.818 295.66C106.927 295.71 107.021 295.648 107.101 295.473L108.647 292.103C108.827 291.71 108.859 291.382 108.743 291.117C108.648 290.863 108.43 290.591 108.087 290.302C107.865 290.094 107.704 289.928 107.603 289.802C107.534 289.665 107.534 289.52 107.604 289.367C107.665 289.236 107.765 289.19 107.906 289.228C108.079 289.255 108.274 289.318 108.492 289.418C109.016 289.658 109.415 289.881 109.691 290.086C110.063 290.31 110.424 290.502 110.773 290.662C111.144 290.832 111.536 290.986 111.948 291.122C112.284 291.197 112.724 291.359 113.27 291.609C113.488 291.709 113.652 291.811 113.763 291.915C113.906 292.006 113.947 292.118 113.887 292.249C113.817 292.401 113.697 292.491 113.526 292.519C113.387 292.534 113.166 292.525 112.864 292.493C112.368 292.423 111.96 292.421 111.64 292.485C111.352 292.538 111.118 292.761 110.938 293.153L106.826 302.12C106.645 302.512 106.64 302.84 106.81 303.103C106.98 303.365 107.27 303.683 107.68 304.056C107.902 304.263 108.047 304.436 108.116 304.573C108.217 304.698 108.233 304.838 108.163 304.99C108.073 305.187 107.777 305.17 107.275 304.94C106.708 304.679 106.275 304.442 105.978 304.226C105.562 303.982 105.168 303.775 104.798 303.605C104.427 303.435 104.013 303.272 103.557 303.116C103.2 303.031 102.737 302.859 102.17 302.598C101.668 302.368 101.463 302.155 101.553 301.959C101.623 301.806 101.727 301.722 101.866 301.707C102.037 301.679 102.274 301.682 102.575 301.715C103.093 301.794 103.497 301.807 103.785 301.755C104.105 301.69 104.355 301.462 104.535 301.069L106.411 296.979C106.441 296.913 106.45 296.865 106.438 296.833C106.426 296.801 106.399 296.775 106.355 296.755L100.007 293.844C99.9632 293.824 99.9205 293.83 99.8786 293.864C99.8586 293.908 99.8336 293.962 99.8036 294.028L97.9577 298.053C97.7776 298.445 97.7616 298.768 97.9097 299.021C98.0797 299.283 98.3805 299.606 98.8122 299.989C99.034 300.196 99.1794 300.369 99.2484 300.506C99.3493 300.631 99.3647 300.771 99.2947 300.923C99.2046 301.12 98.9088 301.103 98.407 300.873C97.8398 300.612 97.4076 300.375 97.1104 300.159C96.6941 299.915 96.3005 299.708 95.9297 299.538C95.5588 299.368 95.1452 299.205 94.6889 299.049C94.3317 298.964 93.8694 298.792 93.3022 298.531Z" fill="black" fill-opacity="0.5"/>
<path d="M118.169 309.086C117.778 308.972 117.41 308.69 117.066 308.24C116.715 307.813 116.457 307.325 116.292 306.777C116.156 306.213 116.149 305.723 116.27 305.308C116.478 304.594 116.826 304.083 117.316 303.776C117.828 303.475 118.576 303.268 119.559 303.154L123.507 302.729C123.999 302.672 124.311 302.588 124.443 302.476C124.576 302.365 124.721 302.082 124.878 301.628L125.591 299.436C125.795 298.821 125.773 298.252 125.525 297.73C125.284 297.185 124.841 296.818 124.196 296.63C123.85 296.529 123.488 296.486 123.109 296.501C122.729 296.516 122.398 296.582 122.114 296.699C121.836 296.793 121.624 297.094 121.476 297.601L121.33 298.233C121.276 298.417 120.902 298.583 120.209 298.731C119.546 298.863 119.042 298.879 118.696 298.778C118.581 298.745 118.495 298.695 118.44 298.629C118.391 298.539 118.38 298.449 118.406 298.356C118.514 297.988 118.743 297.63 119.094 297.282C119.475 296.918 119.938 296.615 120.483 296.374C121.475 295.888 122.522 295.555 123.624 295.376C124.749 295.204 125.657 295.218 126.348 295.42C127.178 295.661 127.77 296.159 128.126 296.912C128.511 297.649 128.565 298.452 128.287 299.321L125.698 307.566C125.535 308.043 125.524 308.465 125.667 308.832C125.811 309.199 126.078 309.439 126.47 309.553C127.046 309.721 127.509 309.718 127.859 309.545C128.008 309.464 128.117 309.433 128.186 309.453C128.301 309.486 128.384 309.548 128.433 309.637C128.482 309.726 128.489 309.829 128.456 309.944C128.429 310.036 128.357 310.153 128.241 310.294C128.132 310.412 128.003 310.512 127.854 310.594C127.378 310.855 126.891 311.026 126.393 311.105C125.911 311.215 125.486 311.216 125.117 311.109C124.057 310.8 123.39 309.956 123.117 308.577L123.013 308.547C122.072 308.947 121.215 309.185 120.443 309.261C119.665 309.359 118.907 309.301 118.169 309.086ZM120.277 307.9C121.084 308.135 121.844 308.056 122.558 307.664C122.736 307.566 122.89 307.424 123.02 307.236C123.149 307.049 123.283 306.763 123.42 306.378L123.982 304.704L124.043 304.497C124.096 304.313 124.11 304.179 124.084 304.097C124.065 303.991 123.998 303.921 123.882 303.888C123.744 303.848 123.497 303.838 123.141 303.859C121.868 303.939 120.911 304.135 120.27 304.448C119.629 304.762 119.244 305.137 119.117 305.575C118.949 306.151 118.979 306.647 119.208 307.064C119.46 307.487 119.816 307.766 120.277 307.9Z" fill="black" fill-opacity="0.5"/>
<path d="M194.454 313.171C193.277 313.406 192.147 313.325 191.065 312.929C190.001 312.504 189.084 311.83 188.313 310.907C187.561 309.956 187.055 308.833 186.797 307.538C186.497 306.032 186.552 304.59 186.963 303.211C187.392 301.804 188.099 300.623 189.084 299.668C190.063 298.69 191.236 298.065 192.601 297.793C194.131 297.488 195.555 297.632 196.872 298.226C197.197 298.382 197.382 298.577 197.429 298.813C197.49 299.119 197.377 299.472 197.09 299.872C196.802 300.271 196.506 300.502 196.2 300.563C196.082 300.586 195.957 300.574 195.825 300.527C195.689 300.457 195.541 300.388 195.381 300.322C194.703 299.992 194.026 299.723 193.348 299.516C192.67 299.308 192.132 299.244 191.731 299.324C190.578 299.554 189.744 300.283 189.231 301.511C188.74 302.734 188.666 304.205 189.008 305.923C189.224 307.006 189.659 307.959 190.312 308.784C190.961 309.584 191.749 310.161 192.676 310.515C193.603 310.869 194.561 310.947 195.55 310.75C196.232 310.614 196.8 310.391 197.252 310.081C197.699 309.747 198.149 309.241 198.601 308.564C198.696 308.423 198.801 308.34 198.919 308.317C199.037 308.293 199.14 308.322 199.23 308.402C199.319 308.482 199.378 308.593 199.406 308.734C199.458 308.993 199.354 309.393 199.095 309.934C198.675 310.776 198.067 311.472 197.271 312.022C196.476 312.572 195.536 312.955 194.454 313.171Z" fill="black" fill-opacity="0.5"/>
<path d="M208.435 309.364C207.914 309.545 207.618 309.533 207.547 309.329C207.492 309.17 207.509 309.037 207.599 308.93C207.704 308.792 207.877 308.631 208.117 308.446C208.223 308.384 208.4 308.272 208.649 308.11C208.912 307.917 209.084 307.717 209.165 307.512C209.269 307.298 209.27 307.044 209.168 306.749L205.976 297.53C205.685 296.691 205.077 296.292 204.152 296.333C203.848 296.336 203.617 296.327 203.457 296.307C203.312 296.255 203.212 296.15 203.157 295.991C203.087 295.787 203.278 295.607 203.732 295.45C204.231 295.277 204.715 295.135 205.184 295.023L206.216 294.703C206.466 294.617 206.832 294.465 207.315 294.247C207.889 293.997 208.46 293.774 209.027 293.578C210.818 292.958 212.319 292.743 213.528 292.934C214.752 293.094 215.552 293.719 215.929 294.807C216.227 295.669 216.233 296.455 215.945 297.164C215.657 297.873 215.163 298.463 214.462 298.934C214.38 298.988 214.335 299.042 214.328 299.095C214.313 299.126 214.377 299.129 214.521 299.104C215.37 298.988 216.218 299.088 217.064 299.405C217.925 299.691 218.508 300.276 218.815 301.161C219.333 302.658 219.124 303.924 218.187 304.959C217.265 305.964 215.806 306.812 213.81 307.503L212.902 307.742C212.1 307.918 211.46 308.088 210.984 308.253C210.334 308.504 209.688 308.765 209.046 309.039C208.427 309.304 208.121 309.448 208.129 309.47L208.435 309.364ZM210.557 299.868C211.895 299.404 212.81 298.821 213.303 298.117C213.819 297.405 213.947 296.675 213.688 295.926C213.138 294.339 211.718 293.941 209.427 294.735C208.815 294.947 208.427 295.183 208.263 295.443C208.121 295.695 208.118 296.013 208.251 296.399L209.276 299.359C209.472 299.926 209.899 300.095 210.557 299.868ZM213.762 306.263C214.896 305.87 215.69 305.341 216.146 304.676C216.616 303.979 216.69 303.166 216.368 302.237C215.991 301.148 215.369 300.525 214.502 300.368C213.65 300.181 212.566 300.315 211.25 300.77C210.366 301.077 210.022 301.513 210.218 302.08L211.302 305.21C211.694 306.344 212.514 306.695 213.762 306.263Z" fill="black" fill-opacity="0.5"/>
<path d="M228.469 302.085C228.021 302.317 227.572 302.467 227.122 302.538C226.672 302.608 226.409 302.568 226.332 302.419C226.155 302.078 226.238 301.819 226.579 301.643C227.262 301.291 227.721 300.743 227.959 299.999C228.185 299.234 228.325 298.486 228.38 297.755C228.456 297.014 228.509 296.541 228.539 296.336C228.647 295.552 228.736 295.019 228.808 294.739C228.89 294.427 229.02 294.13 229.199 293.848C229.272 293.729 229.309 293.643 229.308 293.589C229.318 293.503 229.274 293.472 229.178 293.494C228.162 293.776 227.293 293.793 226.57 293.544C225.837 293.275 225.239 292.692 224.776 291.797C224.215 290.709 224.227 289.609 224.814 288.495C225.401 287.382 226.355 286.484 227.677 285.802C228.253 285.504 228.696 285.289 229.005 285.156L230.685 284.329C231.218 284.054 231.564 283.862 231.724 283.752C231.831 283.697 231.969 283.626 232.14 283.538C232.299 283.428 232.55 283.285 232.891 283.109C233.381 282.856 233.676 282.825 233.775 283.017C233.852 283.166 233.849 283.317 233.765 283.468C233.692 283.587 233.549 283.755 233.337 283.973C233.008 284.278 232.792 284.592 232.689 284.915C232.596 285.206 232.666 285.576 232.897 286.023L237.373 294.692C237.549 295.033 237.756 295.224 237.992 295.263C238.25 295.292 238.502 295.284 238.749 295.237C239.016 295.18 239.209 295.135 239.327 295.101C239.627 295.054 239.852 295.046 240.002 295.076C240.163 295.074 240.282 295.148 240.36 295.297C240.459 295.489 240.295 295.695 239.868 295.915C239.271 296.224 238.775 296.439 238.38 296.563C237.888 296.762 237.472 296.95 237.131 297.126C236.768 297.313 236.385 297.539 235.98 297.801C235.694 298.031 235.273 298.288 234.719 298.575L234.623 298.624C234.196 298.844 233.933 298.859 233.834 298.667C233.757 298.517 233.755 298.383 233.829 298.264C233.913 298.113 234.061 297.928 234.273 297.711C234.707 297.297 234.998 296.972 235.145 296.734C235.303 296.463 235.283 296.136 235.084 295.752L233.317 292.33C233.273 292.244 233.202 292.186 233.105 292.155C233.03 292.113 232.949 292.114 232.864 292.158C232.415 292.336 232.159 292.441 232.095 292.474C231.967 292.54 231.808 292.65 231.616 292.802C231.394 292.999 231.247 293.29 231.177 293.678C231.117 294.033 231.031 294.833 230.918 296.08C230.65 299.379 229.834 301.381 228.469 302.085ZM230.977 291.957C231.532 291.671 231.931 291.424 232.175 291.217C232.43 290.978 232.502 290.751 232.392 290.538L230.575 287.02C230.333 286.551 230.04 286.297 229.696 286.258C229.352 286.22 228.828 286.382 228.124 286.746C227.484 287.076 227.057 287.608 226.841 288.34C226.635 289.041 226.703 289.721 227.044 290.382C227.441 291.15 228.022 291.701 228.789 292.034C229.544 292.346 230.274 292.321 230.977 291.957Z" fill="black" fill-opacity="0.5"/>
<path d="M250.423 289.249C249.973 289.568 249.685 289.64 249.56 289.464C249.463 289.327 249.442 289.194 249.499 289.066C249.561 288.904 249.681 288.701 249.861 288.456C250.189 288.047 250.395 287.695 250.48 287.4C250.584 287.09 250.504 286.75 250.241 286.378L244.599 278.419C244.155 277.792 243.815 277.562 243.58 277.729L241.818 278.978C241.387 279.283 241.154 279.64 241.119 280.047C241.09 280.42 241.223 281.003 241.519 281.793C241.605 281.997 241.635 282.226 241.609 282.48C241.583 282.734 241.501 282.909 241.364 283.006C241.286 283.062 241.189 283.071 241.075 283.035C240.961 282.998 240.855 282.911 240.758 282.774C240.716 282.715 240.66 282.594 240.588 282.409C240.444 282.041 240.231 281.574 239.948 281.009C239.652 280.425 239.386 279.967 239.15 279.634C238.9 279.281 238.922 279.001 239.215 278.793C239.353 278.696 239.53 278.614 239.748 278.548C239.952 278.462 240.136 278.39 240.301 278.332C240.907 278.108 241.445 277.83 241.915 277.497L247.965 273.208C248.69 272.694 249.076 272.347 249.124 272.166C249.161 272.052 249.217 271.923 249.293 271.781C249.369 271.639 249.436 271.548 249.495 271.506C249.553 271.464 249.657 271.465 249.804 271.507C249.938 271.53 250.047 271.6 250.13 271.717C250.227 271.855 250.353 272.074 250.509 272.376C250.691 272.717 250.852 272.985 250.991 273.181C251.241 273.534 251.58 273.97 252.008 274.49L252.049 274.549C252.146 274.686 252.204 274.851 252.223 275.044C252.248 275.203 252.201 275.324 252.084 275.407C251.947 275.504 251.774 275.509 251.565 275.422C251.362 275.301 251.195 275.17 251.064 275.027C250.147 273.941 249.19 273.752 248.191 274.46L246.429 275.709C246.135 275.917 246.21 276.335 246.655 276.961L252.317 284.95C252.567 285.302 252.855 285.48 253.182 285.484C253.494 285.469 253.915 285.377 254.442 285.208C254.733 285.12 254.955 285.081 255.108 285.089C255.267 285.065 255.396 285.121 255.493 285.258C255.618 285.434 255.455 285.682 255.005 286.001C254.495 286.362 254.073 286.617 253.738 286.767C253.319 287.005 252.943 287.243 252.61 287.479C252.277 287.714 251.928 287.991 251.565 288.308C251.313 288.574 250.932 288.888 250.423 289.249Z" fill="black" fill-opacity="0.5"/>
<path d="M266.564 277.157C266.265 277.435 265.835 277.607 265.272 277.672C264.726 277.754 264.175 277.726 263.62 277.588C263.065 277.415 262.641 277.171 262.346 276.855C261.839 276.31 261.579 275.749 261.565 275.171C261.57 274.577 261.774 273.829 262.18 272.926L263.836 269.317C264.039 268.866 264.126 268.555 264.098 268.384C264.07 268.213 263.902 267.944 263.592 267.576L262.074 265.841C261.65 265.351 261.15 265.078 260.575 265.024C259.983 264.952 259.441 265.145 258.95 265.603C258.686 265.849 258.464 266.138 258.282 266.471C258.1 266.804 257.987 267.123 257.943 267.427C257.881 267.714 258.031 268.05 258.391 268.436L258.859 268.886C258.99 269.026 258.941 269.432 258.714 270.103C258.487 270.741 258.243 271.182 257.979 271.427C257.891 271.509 257.805 271.557 257.719 271.571C257.618 271.568 257.534 271.531 257.469 271.46C257.207 271.179 257.016 270.799 256.898 270.319C256.78 269.806 256.757 269.253 256.829 268.661C256.919 267.561 257.169 266.491 257.579 265.453C258.007 264.398 258.485 263.626 259.012 263.135C259.644 262.546 260.374 262.292 261.204 262.372C262.034 262.418 262.751 262.783 263.355 263.467L269.113 269.911C269.439 270.297 269.796 270.521 270.184 270.586C270.573 270.651 270.916 270.544 271.215 270.266C271.654 269.857 271.889 269.458 271.919 269.068C271.925 268.899 271.955 268.789 272.007 268.74C272.095 268.658 272.19 268.619 272.292 268.623C272.393 268.627 272.485 268.672 272.567 268.76C272.633 268.83 272.696 268.951 272.758 269.123C272.803 269.278 272.823 269.44 272.817 269.61C272.798 270.152 272.695 270.658 272.509 271.127C272.356 271.597 272.139 271.963 271.859 272.225C271.051 272.977 269.984 273.118 268.66 272.646L268.581 272.72C268.443 273.734 268.209 274.592 267.878 275.293C267.564 276.012 267.126 276.633 266.564 277.157ZM266.624 274.739C267.239 274.167 267.561 273.473 267.589 272.659C267.597 272.456 267.553 272.25 267.458 272.043C267.364 271.836 267.186 271.575 266.926 271.26L265.776 269.921L265.629 269.763C265.498 269.622 265.39 269.542 265.306 269.522C265.206 269.484 265.111 269.506 265.024 269.588C264.918 269.686 264.783 269.894 264.619 270.211C264.036 271.345 263.715 272.267 263.655 272.978C263.596 273.69 263.722 274.212 264.033 274.546C264.442 274.985 264.884 275.213 265.359 275.229C265.851 275.23 266.273 275.066 266.624 274.739Z" fill="black" fill-opacity="0.5"/>
<path d="M279.118 264.545C278.801 264.937 278.451 265.255 278.067 265.5C277.683 265.745 277.426 265.815 277.295 265.709C276.997 265.468 276.969 265.198 277.21 264.899C277.694 264.302 277.895 263.616 277.813 262.839C277.713 262.048 277.541 261.307 277.298 260.616C277.07 259.906 276.928 259.451 276.873 259.252C276.657 258.49 276.525 257.966 276.478 257.681C276.428 257.362 276.428 257.038 276.478 256.709C276.498 256.57 276.497 256.476 276.474 256.427C276.449 256.345 276.396 256.333 276.317 256.393C275.5 257.059 274.71 257.423 273.949 257.486C273.169 257.534 272.388 257.24 271.604 256.606C270.653 255.836 270.223 254.823 270.313 253.568C270.403 252.313 270.916 251.107 271.853 249.951C272.261 249.447 272.58 249.072 272.81 248.826L274.016 247.394C274.394 246.928 274.633 246.613 274.736 246.449C274.811 246.355 274.909 246.234 275.03 246.085C275.132 245.921 275.304 245.689 275.546 245.391C275.894 244.962 276.151 244.815 276.319 244.951C276.45 245.057 276.507 245.196 276.491 245.368C276.471 245.507 276.408 245.718 276.301 246.003C276.123 246.414 276.051 246.788 276.087 247.126C276.118 247.43 276.33 247.74 276.722 248.057L284.303 254.198C284.601 254.44 284.867 254.531 285.1 254.473C285.348 254.395 285.575 254.286 285.782 254.145C286.004 253.985 286.162 253.866 286.256 253.788C286.512 253.625 286.715 253.527 286.865 253.494C287.012 253.427 287.151 253.447 287.281 253.552C287.449 253.688 287.382 253.943 287.08 254.316C286.657 254.838 286.289 255.235 285.976 255.507C285.607 255.887 285.301 256.226 285.059 256.524C284.802 256.842 284.542 257.202 284.277 257.605C284.106 257.93 283.824 258.335 283.432 258.82L283.364 258.904C283.062 259.277 282.827 259.395 282.659 259.259C282.528 259.154 282.473 259.031 282.492 258.893C282.508 258.72 282.57 258.492 282.676 258.208C282.908 257.655 283.044 257.239 283.083 256.962C283.119 256.651 282.969 256.36 282.633 256.088L279.64 253.664C279.565 253.603 279.477 253.578 279.376 253.589C279.29 253.581 279.216 253.614 279.156 253.689C278.817 254.032 278.624 254.231 278.579 254.287C278.488 254.399 278.386 254.563 278.272 254.78C278.147 255.049 278.13 255.375 278.221 255.758C278.309 256.107 278.552 256.875 278.95 258.062C280.029 261.191 280.085 263.352 279.118 264.545ZM277.348 254.263C277.74 253.778 278.007 253.391 278.148 253.104C278.284 252.782 278.26 252.546 278.073 252.395L274.996 249.902C274.586 249.57 274.215 249.455 273.885 249.558C273.554 249.661 273.14 250.02 272.641 250.636C272.188 251.195 272.01 251.854 272.106 252.612C272.2 253.336 272.535 253.932 273.113 254.4C273.785 254.944 274.538 255.214 275.374 255.212C276.191 255.194 276.849 254.878 277.348 254.263Z" fill="black" fill-opacity="0.5"/>
<path d="M309.001 214.29C308.889 214.607 308.597 214.783 308.126 214.82L296.323 215.791C296.14 215.802 296.041 215.831 296.025 215.876C296.001 215.944 296.064 216.017 296.214 216.096C296.447 216.23 297.58 216.733 299.613 217.607C301.654 218.458 303.164 219.083 304.143 219.481C304.55 219.625 304.865 219.635 305.088 219.51C305.31 219.385 305.565 219.132 305.854 218.75C306.04 218.511 306.199 218.351 306.33 218.27C306.446 218.158 306.583 218.131 306.741 218.187C306.945 218.259 306.966 218.521 306.806 218.974C306.605 219.539 306.415 219.968 306.235 220.261C306.061 220.607 305.902 220.983 305.758 221.39C305.629 221.752 305.54 222.077 305.489 222.364C305.484 222.592 305.39 222.966 305.205 223.486C305.045 223.939 304.863 224.129 304.659 224.057C304.524 224.008 304.442 223.916 304.414 223.779C304.387 223.641 304.374 223.497 304.377 223.345C304.388 223.171 304.394 223.046 304.396 222.97C304.428 222.447 304.41 222.033 304.339 221.728C304.255 221.392 304.017 221.129 303.626 220.94L295.039 216.825C294.121 216.398 293.341 216.694 292.699 217.714C292.582 217.902 292.435 218.066 292.257 218.207C292.088 218.325 291.924 218.356 291.766 218.3C291.585 218.236 291.579 217.966 291.747 217.491L292.188 216.463L292.617 215.47L293.076 214.066C293.133 213.908 293.32 213.809 293.64 213.77L305.084 212.519C305.373 212.494 305.534 212.436 305.566 212.346C305.59 212.278 305.516 212.163 305.345 212L298.445 205.39L297.807 204.82C297.105 204.214 296.77 203.866 296.802 203.776L297.199 202.656C297.368 202.181 297.534 201.642 297.697 201.037C297.846 200.403 297.936 200.04 297.968 199.95C298.129 199.497 298.311 199.307 298.514 199.379C298.786 199.476 298.897 199.808 298.848 200.376C298.801 200.869 298.819 201.283 298.904 201.618C298.966 201.946 299.19 202.178 299.574 202.314C301.248 202.908 303.142 203.491 305.257 204.062L309.163 205.218C309.578 205.34 309.905 205.316 310.144 205.146C310.39 204.953 310.681 204.636 311.016 204.195C311.202 203.955 311.361 203.795 311.492 203.714C311.608 203.602 311.745 203.575 311.903 203.631C312.107 203.703 312.128 203.965 311.968 204.418C311.759 205.006 311.553 205.48 311.349 205.841C311.127 206.322 310.952 206.744 310.824 207.106C310.695 207.468 310.565 207.906 310.434 208.419C310.366 208.828 310.227 209.326 310.019 209.914C309.858 210.367 309.676 210.557 309.472 210.485C309.314 210.429 309.221 210.332 309.193 210.195C309.151 210.027 309.133 209.791 309.139 209.488C309.171 208.965 309.145 208.573 309.058 208.313C308.98 208.031 308.726 207.814 308.297 207.661C305.492 206.667 302.817 205.807 300.273 205.083C300.047 205.003 299.917 205.008 299.885 205.099C299.853 205.189 299.953 205.339 300.184 205.548L308.663 213.521C308.835 213.683 308.938 213.822 308.974 213.937C309.04 214.037 309.05 214.154 309.001 214.29Z" fill="black" fill-opacity="0.5"/>
<path d="M314.776 193.38C314.703 193.781 314.46 194.176 314.048 194.564C313.659 194.957 313.2 195.263 312.672 195.484C312.124 195.676 311.638 195.734 311.213 195.656C310.481 195.522 309.937 195.228 309.581 194.772C309.23 194.293 308.947 193.571 308.733 192.605L307.906 188.721C307.799 188.238 307.684 187.936 307.559 187.815C307.435 187.695 307.139 187.58 306.671 187.47L304.418 186.985C303.784 186.845 303.221 186.925 302.727 187.225C302.209 187.521 301.89 187.999 301.769 188.66C301.704 189.014 301.699 189.379 301.752 189.755C301.805 190.131 301.905 190.454 302.051 190.724C302.173 190.991 302.493 191.171 303.013 191.266L303.657 191.347C303.846 191.382 304.049 191.736 304.268 192.41C304.467 193.057 304.534 193.557 304.469 193.911C304.447 194.029 304.407 194.119 304.346 194.181C304.263 194.239 304.173 194.26 304.079 194.242C303.701 194.173 303.322 193.982 302.94 193.668C302.539 193.326 302.19 192.897 301.894 192.379C301.309 191.443 300.871 190.436 300.58 189.358C300.294 188.256 300.215 187.351 300.345 186.643C300.5 185.793 300.934 185.153 301.647 184.722C302.341 184.263 303.134 184.128 304.027 184.315L312.494 186.046C312.986 186.16 313.406 186.127 313.756 185.947C314.106 185.767 314.318 185.477 314.391 185.075C314.499 184.485 314.449 184.025 314.241 183.694C314.145 183.554 314.103 183.449 314.116 183.378C314.138 183.26 314.19 183.172 314.274 183.114C314.358 183.056 314.459 183.038 314.577 183.06C314.671 183.077 314.795 183.136 314.947 183.237C315.076 183.334 315.188 183.452 315.285 183.592C315.594 184.039 315.813 184.506 315.944 184.993C316.102 185.461 316.147 185.884 316.078 186.262C315.879 187.348 315.108 188.097 313.764 188.51L313.744 188.617C314.239 189.512 314.564 190.34 314.717 191.1C314.895 191.864 314.915 192.624 314.776 193.38ZM313.381 191.405C313.532 190.578 313.376 189.83 312.913 189.16C312.797 188.992 312.64 188.854 312.44 188.744C312.24 188.635 311.942 188.531 311.545 188.434L309.823 188.046L309.61 188.007C309.421 187.973 309.287 187.973 309.208 188.007C309.105 188.037 309.042 188.111 309.021 188.229C308.995 188.371 309.011 188.618 309.068 188.97C309.278 190.228 309.571 191.16 309.948 191.765C310.325 192.371 310.738 192.715 311.187 192.797C311.777 192.905 312.268 192.824 312.659 192.554C313.054 192.26 313.295 191.877 313.381 191.405Z" fill="black" fill-opacity="0.5"/>
<path d="M317.16 172.791C317.134 173.342 317.013 173.613 316.798 173.603C316.63 173.595 316.513 173.529 316.447 173.406C316.357 173.258 316.272 173.037 316.19 172.745C316.07 172.235 315.919 171.855 315.739 171.606C315.56 171.334 315.242 171.186 314.787 171.165L305.042 170.702C304.275 170.665 303.884 170.791 303.871 171.079L303.768 173.236C303.743 173.764 303.88 174.167 304.179 174.445C304.456 174.698 304.996 174.952 305.801 175.207C306.015 175.265 306.213 175.383 306.397 175.56C306.581 175.736 306.669 175.909 306.661 176.077C306.656 176.173 306.604 176.254 306.505 176.322C306.406 176.389 306.272 176.419 306.104 176.411C306.032 176.407 305.902 176.377 305.712 176.32C305.333 176.206 304.834 176.086 304.216 175.96C303.573 175.834 303.048 175.761 302.64 175.741C302.209 175.721 302.001 175.531 302.018 175.171C302.026 175.004 302.072 174.813 302.154 174.601C302.212 174.388 302.269 174.198 302.325 174.033C302.522 173.417 302.635 172.822 302.662 172.247L303.014 164.839C303.056 163.952 303.021 163.434 302.907 163.284C302.84 163.185 302.774 163.062 302.709 162.914C302.644 162.767 302.613 162.657 302.616 162.586C302.62 162.514 302.684 162.433 302.808 162.342C302.909 162.251 303.031 162.209 303.174 162.216C303.342 162.224 303.593 162.26 303.926 162.323C304.308 162.39 304.618 162.428 304.858 162.44C305.289 162.46 305.842 162.462 306.515 162.446L306.587 162.45C306.755 162.458 306.921 162.514 307.084 162.618C307.224 162.696 307.291 162.808 307.284 162.951C307.276 163.119 307.174 163.259 306.976 163.369C306.756 163.455 306.549 163.505 306.356 163.52C304.936 163.573 304.197 164.21 304.139 165.433L304.036 167.591C304.019 167.95 304.394 168.148 305.162 168.185L314.942 168.649C315.374 168.67 315.692 168.553 315.896 168.298C316.077 168.042 316.263 167.655 316.456 167.135C316.566 166.852 316.671 166.653 316.773 166.538C316.851 166.397 316.975 166.331 317.143 166.339C317.358 166.349 317.453 166.63 317.427 167.181C317.397 167.805 317.338 168.294 317.249 168.651C317.178 169.128 317.133 169.57 317.114 169.978C317.095 170.385 317.097 170.83 317.123 171.312C317.177 171.675 317.19 172.168 317.16 172.791Z" fill="black" fill-opacity="0.5"/>
<path d="M317.406 155.136C317.455 155.71 317.372 156.006 317.157 156.025C316.99 156.039 316.865 155.99 316.783 155.877C316.675 155.741 316.561 155.534 316.441 155.256C316.252 154.742 316.063 154.373 315.875 154.148C315.664 153.925 315.342 153.833 314.912 153.87L305.084 154.716C304.63 154.755 304.327 154.877 304.177 155.083C304.002 155.291 303.872 155.603 303.787 156.02C303.716 156.315 303.651 156.537 303.592 156.687C303.507 156.815 303.38 156.886 303.213 156.9C302.998 156.919 302.867 156.665 302.822 156.139C302.771 155.541 302.768 155.096 302.815 154.803C302.83 154.416 302.82 154.019 302.785 153.613C302.752 153.23 302.693 152.826 302.609 152.399C302.51 152.095 302.436 151.655 302.387 151.082C302.337 150.508 302.42 150.211 302.635 150.193C302.803 150.179 302.941 150.239 303.049 150.374C303.131 150.488 303.232 150.684 303.352 150.962C303.535 151.404 303.732 151.737 303.944 151.959C304.13 152.16 304.438 152.242 304.868 152.205L308.491 151.893C308.586 151.885 308.655 151.843 308.697 151.767C308.736 151.667 308.729 151.583 308.675 151.516C308.563 151.333 308.463 151.004 308.374 150.53C308.282 150.032 308.218 149.568 308.181 149.137C308.126 148.492 308.209 147.774 308.43 146.984C308.627 146.196 309.024 145.5 309.623 144.894C310.195 144.267 310.983 143.91 311.988 143.823C313.494 143.694 314.655 144.172 315.472 145.258C316.288 146.344 316.773 147.784 316.927 149.577C316.981 150.199 316.987 150.692 316.946 151.057C316.94 151.539 316.954 151.984 316.989 152.39C317.024 152.797 317.086 153.237 317.175 153.711C317.277 154.063 317.354 154.539 317.406 155.136ZM315.892 149.305C315.818 148.444 315.479 147.726 314.876 147.152C314.248 146.58 313.433 146.337 312.428 146.423C311.257 146.524 310.42 146.885 309.92 147.506C309.393 148.106 309.179 148.979 309.278 150.127C309.334 150.773 309.457 151.22 309.647 151.468C309.755 151.604 309.894 151.688 310.066 151.721C310.211 151.733 310.392 151.729 310.607 151.711L314.337 151.39C314.863 151.344 315.264 151.105 315.54 150.672C315.816 150.239 315.933 149.783 315.892 149.305Z" fill="black" fill-opacity="0.5"/>
<path d="M312.558 107.279C312.614 107.412 312.564 107.602 312.408 107.85C312.243 108.076 312.043 108.252 311.809 108.376C310.922 108.803 310.24 109.195 309.765 109.551C309.303 109.876 308.867 110.23 308.455 110.612C308.376 110.672 308.273 110.767 308.146 110.899C307.988 111.018 307.853 111.1 307.743 111.147C307.433 111.278 307.218 111.199 307.096 110.912C307.04 110.779 307 110.653 306.976 110.533C306.951 110.413 306.92 110.309 306.883 110.22C305.969 108.053 302.405 108.28 296.191 110.902C295.594 111.154 295.234 111.474 295.112 111.865C294.959 112.242 294.947 112.768 295.075 113.443C295.109 113.585 295.121 113.737 295.11 113.897C295.068 114.045 294.97 114.152 294.815 114.217C294.705 114.264 294.568 114.217 294.405 114.078C294.233 113.916 294.123 113.78 294.076 113.669C293.946 113.36 293.837 113.041 293.751 112.712L293.42 111.836L290.496 104.904L290.071 103.989C289.877 103.654 289.715 103.331 289.585 103.022C289.538 102.911 289.522 102.749 289.535 102.535C289.54 102.298 289.598 102.157 289.708 102.11C289.863 102.045 290.012 102.06 290.157 102.155C290.27 102.238 290.365 102.341 290.443 102.464C290.7 102.825 290.941 103.088 291.167 103.253C291.384 103.396 291.681 103.453 292.059 103.423C292.428 103.372 292.934 103.211 293.575 102.94L300.872 99.8621C301.403 99.6382 301.744 99.429 301.897 99.2345C302.049 99.04 302.032 98.7216 301.845 98.2793C301.799 98.1688 301.732 98.0408 301.644 97.8953C301.548 97.7277 301.457 97.5444 301.373 97.3454C301.205 96.9474 301.221 96.7064 301.42 96.6224C301.486 96.5944 301.546 96.5822 301.6 96.5856C301.707 96.5925 301.959 96.6034 302.356 96.6183C302.744 96.6111 303.27 96.5321 303.936 96.3815C304.624 96.2215 305.453 95.9631 306.422 95.6062C306.675 95.5257 306.944 95.5162 307.231 95.5777C307.508 95.6171 307.674 95.7031 307.73 95.8358C307.926 96.3002 307.626 96.7003 306.83 97.0361L305.39 97.6046C304.793 97.8565 304.369 98.0873 304.119 98.297C303.891 98.4974 303.775 98.7158 303.77 98.9521C303.756 99.1663 303.829 99.4614 303.987 99.8373L306.884 106.703C307.145 107.323 307.518 107.712 308.002 107.873C308.487 108.033 309.215 107.908 310.188 107.497L311.07 107.086C311.866 106.751 312.362 106.815 312.558 107.279ZM303.712 102.611C303.516 102.146 303.35 101.877 303.215 101.804C303.08 101.731 302.802 101.783 302.382 101.96L293.791 105.584C292.818 105.995 292.407 106.377 292.556 106.731L293.801 109.683C293.96 110.059 294.526 110.041 295.499 109.631C297.356 108.847 299.086 108.287 300.689 107.949C302.27 107.621 303.835 107.534 305.385 107.688C305.394 107.71 305.425 107.722 305.479 107.726C305.532 107.729 305.581 107.722 305.626 107.703C305.758 107.647 305.759 107.464 305.629 107.155L303.712 102.611Z" fill="black" fill-opacity="0.5"/>
<path d="M298.83 88.7986C299.084 89.2063 299.119 89.4672 298.935 89.5812C298.792 89.6698 298.659 89.6822 298.534 89.6182C298.377 89.5466 298.181 89.4138 297.948 89.2198C297.547 88.8473 297.212 88.6034 296.942 88.4882C296.653 88.3856 296.324 88.4483 295.957 88.6763L287.578 93.8813C287.211 94.1093 287.02 94.3695 287.004 94.6621C286.955 94.9469 286.989 95.3209 287.108 95.7843C287.178 96.0795 287.221 96.3074 287.236 96.4677C287.217 96.6203 287.137 96.7409 286.994 96.8295C286.811 96.9435 286.592 96.7966 286.339 96.3889C286.01 95.8588 285.781 95.4219 285.652 95.0781C285.439 94.6451 285.232 94.2654 285.029 93.9393C284.814 93.5927 284.572 93.2486 284.303 92.907C284.077 92.6799 283.793 92.2912 283.452 91.7408C283.198 91.333 283.163 91.0722 283.347 90.9582C283.49 90.8695 283.64 90.861 283.797 90.9327C283.922 90.9966 284.101 91.1256 284.334 91.3196C284.697 91.6309 285.023 91.8379 285.313 91.9405C285.57 92.0353 285.882 91.9687 286.249 91.7408L292.365 87.9414C292.426 87.9034 292.462 87.8247 292.472 87.7051C292.462 87.5983 292.424 87.5371 292.358 87.5217L282.706 85.4232C282.652 85.4282 282.592 85.4229 282.526 85.4075C282.46 85.392 282.376 85.416 282.274 85.4793C281.907 85.7072 281.713 85.9408 281.692 86.1798C281.651 86.4316 281.689 86.7891 281.808 87.2525C281.878 87.5478 281.921 87.7756 281.936 87.9359C281.917 88.0885 281.837 88.2091 281.694 88.2977C281.511 88.4117 281.292 88.2648 281.039 87.8571C280.697 87.3067 280.474 86.8799 280.371 86.5769C280.184 86.1846 279.982 85.8152 279.767 85.4686C279.565 85.1424 279.316 84.7882 279.022 84.4057C278.771 84.1379 278.481 83.739 278.152 83.209C277.898 82.8012 277.863 82.5404 278.047 82.4264C278.19 82.3377 278.34 82.3293 278.497 82.4009C278.622 82.4649 278.801 82.5938 279.034 82.7878C279.41 83.1195 279.749 83.3469 280.051 83.4698C280.321 83.585 280.639 83.5287 281.006 83.3007L289.385 78.0956C289.751 77.8677 289.937 77.5973 289.94 77.2843C289.943 76.9714 289.877 76.5464 289.741 76.0093C289.671 75.714 289.645 75.49 289.663 75.3374C289.648 75.1771 289.712 75.0526 289.855 74.964C290.038 74.85 290.257 74.9969 290.51 75.4046C290.839 75.9347 291.081 76.392 291.235 76.7765C291.473 77.2504 291.693 77.6504 291.896 77.9766C292.098 78.3028 292.359 78.6774 292.679 79.1006C292.943 79.3888 293.245 79.8081 293.587 80.3586C293.841 80.7663 293.876 81.0271 293.692 81.1411C293.549 81.2298 293.416 81.2421 293.291 81.1782C293.134 81.1065 292.938 80.9737 292.705 80.7797C292.316 80.4276 291.988 80.1939 291.718 80.0787C291.416 79.9558 291.081 80.0083 290.714 80.2362L284.201 84.2825C284.14 84.3205 284.095 84.3624 284.067 84.4081C284.039 84.4538 284.058 84.4844 284.124 84.4998L294.234 86.6529C294.333 86.6761 294.464 86.637 294.628 86.5357C294.995 86.3077 295.186 86.0475 295.202 85.755C295.206 85.4421 295.133 85.0069 294.984 84.4493C294.914 84.154 294.888 83.9301 294.906 83.7775C294.891 83.6172 294.955 83.4927 295.098 83.404C295.281 83.2901 295.5 83.4369 295.753 83.8447C296.082 84.3747 296.324 84.832 296.478 85.2166C296.716 85.6904 296.936 86.0904 297.139 86.4166C297.341 86.7428 297.602 87.1175 297.922 87.5407C298.186 87.8289 298.489 88.2482 298.83 88.7986Z" fill="black" fill-opacity="0.5"/>
<path d="M281.507 63.6174C282.174 64.405 282.711 65.3181 283.119 66.3567C283.511 67.3769 283.534 68.1281 283.187 68.6102C282.901 68.9781 282.647 69.272 282.424 69.4919C282.202 69.7118 281.962 69.9304 281.706 70.1475C281.486 70.3336 281.29 70.4365 281.118 70.4563C280.928 70.4916 280.778 70.4451 280.67 70.3169C280.592 70.2253 280.727 69.8278 281.075 69.1245C281.529 68.1745 281.719 67.3218 281.645 66.5664C281.556 65.7927 281.279 65.1311 280.814 64.5816C280.178 63.8306 279.456 63.4045 278.647 63.3032C277.804 63.1992 276.98 63.4883 276.174 64.1706C275.569 64.6824 275.164 65.2617 274.957 65.9087C274.734 66.5373 274.84 67.1081 275.274 67.6209C275.383 67.7491 275.573 67.9182 275.845 68.1281C276.117 68.338 276.346 68.5529 276.532 68.7727C276.749 69.0291 276.89 69.2877 276.953 69.5484C276.998 69.8246 276.92 70.048 276.719 70.2186C276.261 70.6063 275.714 70.4247 275.078 69.6737C274.985 69.5638 274.865 69.3665 274.719 69.0819C274.556 68.7789 274.398 68.5358 274.243 68.3527C273.948 68.0046 273.52 67.8328 272.957 67.8372C272.379 67.8233 271.834 68.0334 271.321 68.4676C270.68 69.0104 270.27 69.6405 270.091 70.3579C269.879 71.0725 270.067 71.7778 270.656 72.4738C271.478 73.4446 272.778 73.791 274.555 73.5128C274.797 73.4648 275.076 73.3858 275.392 73.2758C275.708 73.1658 275.951 73.1009 276.123 73.0811C276.261 73.0585 276.369 73.093 276.447 73.1846C276.555 73.3128 276.579 73.434 276.519 73.5482C276.44 73.6779 276.291 73.8358 276.071 74.0219C275.741 74.301 275.388 74.5527 275.012 74.7769L274.365 75.1829C273.894 75.5185 273.52 75.6151 273.243 75.4729C271.62 74.7081 270.468 73.9227 269.786 73.1167C268.809 71.9628 268.265 70.8192 268.155 69.6862C268.029 68.5348 268.387 67.6024 269.23 66.8891C269.926 66.2998 270.614 66.0163 271.293 66.0387C271.957 66.0427 272.648 66.2278 273.367 66.5941C273.58 66.6969 273.644 66.6426 273.559 66.4312C272.672 64.6036 272.87 63.147 274.152 62.0614C275.05 61.3016 275.989 60.9624 276.97 61.0438C277.932 61.1408 278.809 61.452 279.6 61.9775C280.391 62.5029 281.026 63.0496 281.507 63.6174Z" fill="black" fill-opacity="0.5"/>
<path d="M270.075 51.1265C270.377 51.4011 270.583 51.8161 270.694 52.3715C270.822 52.9092 270.839 53.4605 270.747 54.0255C270.621 54.5921 270.412 55.0352 270.121 55.3547C269.621 55.905 269.083 56.2107 268.508 56.2718C267.916 56.3167 267.153 56.1743 266.22 55.8445L262.486 54.4916C262.02 54.3267 261.703 54.2653 261.535 54.3072C261.367 54.3491 261.113 54.5394 260.772 54.8783L259.168 56.534C258.714 56.9971 258.484 57.5177 258.477 58.0956C258.454 58.6913 258.691 59.2153 259.188 59.6676C259.455 59.9099 259.761 60.1078 260.108 60.2613C260.455 60.4148 260.782 60.5013 261.089 60.5208C261.38 60.5581 261.702 60.3815 262.058 59.9909L262.467 59.4874C262.597 59.3454 263.005 59.3601 263.693 59.5316C264.346 59.7046 264.806 59.9122 265.073 60.1545C265.161 60.2353 265.216 60.3176 265.237 60.4016C265.242 60.5033 265.212 60.5897 265.148 60.6607C264.889 60.9447 264.526 61.1657 264.058 61.3237C263.555 61.4833 263.006 61.5517 262.411 61.5288C261.306 61.5299 260.22 61.3688 259.151 61.0455C258.065 60.706 257.256 60.2939 256.723 59.8094C256.084 59.2279 255.77 58.5206 255.782 57.6876C255.76 56.8562 256.064 56.1113 256.696 55.4529L262.644 49.1835C263.001 48.8269 263.195 48.4524 263.228 48.0601C263.26 47.6678 263.126 47.3344 262.824 47.0598C262.38 46.656 261.963 46.4548 261.572 46.4563C261.403 46.4643 261.291 46.444 261.238 46.3956C261.149 46.3148 261.103 46.2236 261.098 46.1219C261.093 46.0202 261.131 45.9249 261.212 45.8362C261.276 45.7652 261.392 45.6918 261.558 45.616C261.708 45.5579 261.868 45.5249 262.038 45.5169C262.58 45.4913 263.093 45.5521 263.575 45.6992C264.056 45.8124 264.439 45.9982 264.723 46.2567C265.539 46.9997 265.767 48.0508 265.407 49.4099L265.487 49.4826C266.509 49.5363 267.383 49.699 268.109 49.9705C268.852 50.2243 269.507 50.6097 270.075 51.1265ZM267.661 51.2659C267.039 50.7006 266.322 50.4371 265.508 50.4755C265.305 50.4851 265.104 50.5455 264.905 50.6568C264.706 50.7682 264.461 50.9666 264.169 51.2522L262.928 52.5085L262.783 52.6683C262.654 52.8103 262.582 52.9241 262.569 53.0096C262.54 53.1129 262.57 53.205 262.659 53.2857C262.765 53.3826 262.983 53.4998 263.313 53.6372C264.491 54.1252 265.437 54.3694 266.15 54.3697C266.864 54.3701 267.374 54.2016 267.681 53.8643C268.085 53.4205 268.276 52.9613 268.253 52.4867C268.213 51.9959 268.016 51.5889 267.661 51.2659Z" fill="black" fill-opacity="0.5"/>
<path d="M256.256 39.7208C256.655 39.9872 256.795 40.2102 256.675 40.3899C256.582 40.5297 256.465 40.5962 256.326 40.5895C256.153 40.5895 255.92 40.5495 255.627 40.4695C255.108 40.2963 254.702 40.213 254.409 40.2196C254.103 40.2461 253.83 40.4391 253.59 40.7985L248.116 49.0044C247.876 49.3638 247.81 49.68 247.916 49.9529C247.989 50.2325 248.176 50.5587 248.475 50.9315C248.661 51.1712 248.795 51.361 248.874 51.5008C248.921 51.6472 248.898 51.7903 248.804 51.9301C248.685 52.1098 248.425 52.0665 248.026 51.8001C247.507 51.4538 247.117 51.1509 246.858 50.8912C246.485 50.5849 246.139 50.3252 245.819 50.1121C245.48 49.8857 245.117 49.6726 244.731 49.4728C244.432 49.3596 244.012 49.1232 243.473 48.7636C243.074 48.4972 242.934 48.2742 243.054 48.0945C243.147 47.9548 243.281 47.8849 243.454 47.885C243.593 47.8916 243.81 47.935 244.103 48.0149C244.562 48.1482 244.945 48.2015 245.251 48.175C245.524 48.1551 245.78 47.9654 246.02 47.606L250.015 41.6163C250.055 41.5564 250.055 41.4699 250.015 41.3567C249.962 41.2635 249.902 41.2236 249.836 41.2368L240.18 43.3212C240.133 43.3478 240.077 43.3677 240.01 43.381C239.944 43.3943 239.877 43.4509 239.81 43.5507C239.571 43.9101 239.491 44.2029 239.571 44.4293C239.637 44.6756 239.82 44.9852 240.119 45.358C240.306 45.5977 240.439 45.7874 240.519 45.9272C240.565 46.0737 240.542 46.2168 240.449 46.3565C240.329 46.5362 240.069 46.4929 239.67 46.2265C239.131 45.867 238.752 45.5706 238.532 45.3376C238.199 45.058 237.863 44.8049 237.524 44.5785C237.204 44.3654 236.832 44.1457 236.406 43.9193C236.066 43.7794 235.637 43.5363 235.118 43.1901C234.718 42.9237 234.579 42.7007 234.699 42.521C234.792 42.3812 234.925 42.3114 235.098 42.3114C235.238 42.3181 235.454 42.3614 235.747 42.4414C236.226 42.5879 236.629 42.6546 236.955 42.6414C237.248 42.6348 237.514 42.4518 237.754 42.0924L243.228 33.8865C243.467 33.5271 243.524 33.2043 243.398 32.918C243.271 32.6318 243.035 32.2723 242.689 31.8395C242.503 31.5998 242.386 31.4068 242.34 31.2603C242.26 31.1205 242.267 30.9807 242.36 30.841C242.48 30.6613 242.739 30.7046 243.139 30.971C243.658 31.3172 244.067 31.6335 244.366 31.9198C244.779 32.2527 245.145 32.5257 245.464 32.7388C245.784 32.9519 246.177 33.185 246.642 33.4381C247.002 33.5912 247.451 33.8476 247.99 34.2072C248.39 34.4736 248.529 34.6966 248.409 34.8763C248.316 35.016 248.2 35.0826 248.06 35.0759C247.887 35.0758 247.654 35.0358 247.361 34.9559C246.862 34.796 246.466 34.7194 246.173 34.7259C245.847 34.7392 245.564 34.9255 245.324 35.2849L241.069 41.6639C241.029 41.7238 241.006 41.7804 240.999 41.8337C240.992 41.8869 241.022 41.9069 241.089 41.8936L251.184 39.6696C251.284 39.6497 251.387 39.5598 251.493 39.4001C251.733 39.0407 251.8 38.7246 251.693 38.4516C251.567 38.1654 251.321 37.7992 250.955 37.3531C250.768 37.1134 250.652 36.9204 250.606 36.7739C250.526 36.6341 250.532 36.4943 250.626 36.3546C250.745 36.1749 251.005 36.2182 251.404 36.4846C251.923 36.8308 252.333 37.1471 252.632 37.4334C253.045 37.7664 253.411 38.0394 253.73 38.2525C254.05 38.4655 254.442 38.6986 254.908 38.9517C255.268 39.1049 255.717 39.3613 256.256 39.7208ZM240.248 49.7712C241.187 50.3972 241.839 51.1928 242.204 52.158C242.55 53.11 242.444 54.0053 241.884 54.8438C241.551 55.343 241.182 55.6591 240.776 55.7921C240.37 55.9251 240.007 55.8851 239.687 55.672C239.388 55.4722 239.208 55.2226 239.148 54.923C239.055 54.6301 239.089 54.3638 239.249 54.1243L239.958 53.126C240.157 52.8265 240.164 52.4271 239.978 51.9278C239.758 51.4352 239.409 51.0291 238.93 50.7094C238.431 50.3765 237.855 50.2232 237.203 50.2497C236.55 50.2762 235.855 50.5622 235.116 51.1078C234.783 51.3474 234.553 51.4971 234.427 51.557C234.28 51.6035 234.167 51.6002 234.087 51.5469C233.927 51.4404 233.941 51.2473 234.127 50.9678C234.9 49.8098 235.868 49.1577 237.033 49.0116C238.178 48.8521 239.25 49.1053 240.248 49.7712Z" fill="black" fill-opacity="0.5"/>
<path d="M234.542 26.1613C235.045 26.3889 235.251 26.6011 235.162 26.7978C235.093 26.9509 234.989 27.0355 234.85 27.0516C234.679 27.0797 234.443 27.0781 234.141 27.0469C233.601 26.9604 233.186 26.9442 232.898 26.9983C232.601 27.0743 232.363 27.3091 232.185 27.7027L228.118 36.6895C227.94 37.0831 227.926 37.4058 228.075 37.6579C228.193 37.9218 228.43 38.2134 228.786 38.5326C229.008 38.7388 229.171 38.9043 229.272 39.0293C229.342 39.1662 229.342 39.3112 229.273 39.4643C229.184 39.6611 228.888 39.6457 228.385 39.4181C227.816 39.1609 227.405 38.9352 227.15 38.7409C226.777 38.5191 226.404 38.3241 226.032 38.1559C225.682 37.9976 225.301 37.8513 224.887 37.7169C224.573 37.6539 224.143 37.4987 223.596 37.2513C223.093 37.0238 222.887 36.8116 222.976 36.6148C223.045 36.4617 223.165 36.3712 223.336 36.3431C223.475 36.3269 223.695 36.3345 223.997 36.3658C224.472 36.4226 224.858 36.413 225.156 36.337C225.422 36.273 225.644 36.0442 225.822 35.6506L227.381 32.2068C227.44 32.0756 227.36 31.9605 227.142 31.8616L221.041 29.1011C220.932 29.0516 220.838 29.1144 220.758 29.2893L219.23 32.6675C219.052 33.0611 219.021 33.3899 219.139 33.6539C219.235 33.9079 219.455 34.1787 219.799 34.4661C220.022 34.6723 220.184 34.8379 220.285 34.9628C220.355 35.0998 220.355 35.2448 220.286 35.3978C220.227 35.529 220.126 35.5759 219.985 35.5384C219.813 35.5128 219.617 35.4506 219.398 35.3517C218.873 35.1142 218.473 34.8934 218.196 34.6893C217.823 34.4675 217.461 34.2774 217.111 34.1191C216.739 33.9509 216.347 33.7996 215.933 33.6653C215.597 33.5924 215.156 33.4322 214.61 33.1849C214.391 33.0859 214.226 32.9849 214.114 32.8818C213.971 32.7907 213.929 32.6795 213.989 32.5483C214.058 32.3953 214.178 32.3047 214.349 32.2766C214.488 32.2605 214.708 32.268 215.01 32.2993C215.507 32.366 215.915 32.3663 216.235 32.3002C216.523 32.2461 216.756 32.0222 216.934 31.6287L221 22.6419C221.178 22.2483 221.182 21.9205 221.011 21.6587C220.839 21.3968 220.548 21.0804 220.136 20.7097C219.913 20.5035 219.767 20.332 219.697 20.195C219.596 20.0701 219.579 19.9311 219.649 19.778C219.738 19.5812 220.034 19.5966 220.537 19.8242C221.105 20.0814 221.539 20.317 221.837 20.531C222.254 20.7727 222.649 20.9776 223.021 21.1458C223.392 21.314 223.807 21.4751 224.264 21.6293C224.622 21.7121 225.085 21.8821 225.653 22.1394C226.156 22.3669 226.363 22.5791 226.274 22.7759C226.205 22.929 226.101 23.0136 225.962 23.0297C225.791 23.0578 225.554 23.0562 225.253 23.0249C224.734 22.9483 224.331 22.9371 224.043 22.9912C223.723 23.0573 223.474 23.2872 223.296 23.6807L221.441 27.7806C221.411 27.8462 221.403 27.8948 221.414 27.9266C221.426 27.9584 221.454 27.9841 221.498 28.0039L227.861 30.8831C227.905 30.9029 227.947 30.8959 227.989 30.862C228.009 30.8183 228.034 30.7636 228.063 30.698L229.889 26.6638C230.067 26.2702 230.081 25.9474 229.932 25.6954C229.76 25.4335 229.458 25.1123 229.024 24.7317C228.802 24.5255 228.655 24.3539 228.586 24.217C228.484 24.092 228.468 23.953 228.537 23.7999C228.626 23.6032 228.922 23.6185 229.425 23.8461C229.994 24.1033 230.427 24.339 230.725 24.553C231.143 24.7946 231.537 24.9995 231.909 25.1677C232.281 25.3359 232.695 25.4971 233.152 25.6512C233.51 25.734 233.973 25.9041 234.542 26.1613Z" fill="black" fill-opacity="0.5"/>
<path d="M209.621 15.733C210.014 15.8451 210.383 16.1253 210.729 16.5736C211.082 16.9989 211.342 17.4851 211.51 18.0324C211.649 18.5961 211.659 19.0856 211.54 19.501C211.336 20.2164 210.99 20.7291 210.502 21.039C209.991 21.3423 209.244 21.5533 208.262 21.672L204.316 22.1172C203.824 22.1766 203.513 22.2623 203.381 22.3744C203.249 22.4865 203.106 22.77 202.951 23.2249L202.249 25.4205C202.048 26.037 202.072 26.6057 202.323 27.1266C202.567 27.6705 203.012 28.0348 203.658 28.2193C204.004 28.3182 204.367 28.3594 204.746 28.3429C205.125 28.3264 205.456 28.2588 205.74 28.1401C206.017 28.0445 206.228 27.7429 206.373 27.2352L206.516 26.6022C206.569 26.4176 206.942 26.2495 207.634 26.0978C208.296 25.9626 208.801 25.9444 209.147 26.0433C209.262 26.0763 209.348 26.1257 209.404 26.1917C209.454 26.2807 209.465 26.3713 209.439 26.4636C209.333 26.8329 209.106 27.1922 208.756 27.5417C208.377 27.9076 207.916 28.2126 207.372 28.4566C206.383 28.9478 205.338 29.2857 204.237 29.4704C203.113 29.6485 202.204 29.6386 201.512 29.4408C200.681 29.2035 200.086 28.709 199.727 27.9574C199.338 27.2223 199.28 26.4196 199.554 25.5492L202.1 17.291C202.262 16.813 202.27 16.391 202.125 16.0251C201.98 15.6592 201.711 15.4202 201.319 15.3081C200.742 15.1433 200.279 15.1483 199.929 15.323C199.781 15.4054 199.672 15.4367 199.603 15.417C199.487 15.384 199.405 15.323 199.356 15.234C199.306 15.145 199.298 15.0428 199.331 14.9274C199.357 14.8351 199.428 14.7181 199.543 14.5763C199.652 14.4576 199.781 14.3571 199.929 14.2747C200.404 14.0109 200.89 13.8378 201.388 13.7554C201.869 13.6433 202.294 13.64 202.664 13.7454C203.725 14.0487 204.396 14.8893 204.676 16.2673L204.78 16.297C205.72 15.8914 206.575 15.6491 207.347 15.5699C208.125 15.4677 208.883 15.5221 209.621 15.733ZM207.52 16.9298C206.712 16.6991 205.952 16.7815 205.24 17.1771C205.062 17.276 204.909 17.4195 204.78 17.6074C204.652 17.7953 204.52 18.0821 204.385 18.4678L203.831 20.1442L203.772 20.3519C203.719 20.5365 203.706 20.67 203.732 20.7524C203.752 20.8579 203.819 20.9271 203.935 20.9601C204.073 20.9997 204.32 21.0079 204.677 20.9848C205.949 20.899 206.905 20.6979 207.545 20.3814C208.184 20.0649 208.567 19.6874 208.692 19.2489C208.857 18.672 208.824 18.1759 208.593 17.7605C208.339 17.3386 207.981 17.0616 207.52 16.9298Z" fill="black" fill-opacity="0.5"/>
</svg>
