<svg width="486" height="35" viewBox="0 0 486 35" fill="none" xmlns="http://www.w3.org/2000/svg">
<path d="M1.13577 24.18C0.439766 24.18 0.0917656 24.048 0.0917656 23.784C0.0917656 23.616 0.187766 23.484 0.379766 23.388C0.571766 23.292 0.871766 23.208 1.27977 23.136C2.14377 22.968 2.71977 22.704 3.00777 22.344C3.29577 21.96 3.43977 21.324 3.43977 20.436V4.164C3.43977 3.54 3.40377 3.084 3.33177 2.796C3.25977 2.484 3.09177 2.232 2.82777 2.04C2.56377 1.848 2.13177 1.704 1.53177 1.608C0.739766 1.464 0.343766 1.224 0.343766 0.887999C0.343766 0.623998 0.691766 0.491998 1.38777 0.491998C2.10777 0.491998 2.82777 0.515998 3.54777 0.563999L5.09577 0.599999L6.71577 0.563999C7.48377 0.515998 8.21577 0.491998 8.91177 0.491998C9.60777 0.491998 9.95577 0.623998 9.95577 0.887999C9.95577 1.224 9.55977 1.464 8.76777 1.608C7.87977 1.776 7.24377 2.064 6.85977 2.472C6.49977 2.88 6.31977 3.444 6.31977 4.164V17.808C6.31977 18.336 6.45177 18.468 6.71577 18.204L20.6478 4.344C20.8398 4.152 20.9358 3.96 20.9358 3.768V3.624C20.9118 3.072 20.6958 2.64 20.2878 2.328C19.9038 1.992 19.3398 1.752 18.5958 1.608C17.8038 1.464 17.4078 1.224 17.4078 0.887999C17.4078 0.623998 17.7558 0.491998 18.4518 0.491998C19.1238 0.491998 19.8918 0.515998 20.7558 0.563999L22.6278 0.599999L23.9238 0.563999C24.5478 0.515998 25.2318 0.491998 25.9758 0.491998C26.6718 0.491998 27.0198 0.623998 27.0198 0.887999C27.0198 1.224 26.6238 1.464 25.8318 1.608C24.9918 1.752 24.4518 2.016 24.2118 2.4C23.9718 2.784 23.8518 3.36 23.8518 4.128V20.4C23.8518 21.336 23.9718 21.996 24.2118 22.38C24.4758 22.74 25.0398 22.992 25.9038 23.136C26.3118 23.208 26.6118 23.292 26.8038 23.388C26.9958 23.484 27.0918 23.616 27.0918 23.784C27.0918 24.048 26.7438 24.18 26.0478 24.18C25.1598 24.18 24.4278 24.144 23.8518 24.072C23.2278 24.024 22.6878 24 22.2318 24C21.7518 24 21.1998 24.024 20.5758 24.072C19.9998 24.144 19.2678 24.18 18.3798 24.18C17.6838 24.18 17.3358 24.048 17.3358 23.784C17.3358 23.616 17.4318 23.484 17.6238 23.388C17.8158 23.292 18.1158 23.208 18.5238 23.136C19.3398 22.992 19.9398 22.764 20.3238 22.452C20.7318 22.116 20.9358 21.612 20.9358 20.94V6.612C20.9358 6.204 20.8158 6.12 20.5758 6.36L6.60777 20.256C6.51177 20.352 6.43977 20.436 6.39177 20.508C6.36777 20.556 6.35577 20.628 6.35577 20.724C6.35577 20.82 6.35577 20.892 6.35577 20.94C6.35577 21.636 6.58377 22.14 7.03977 22.452C7.49577 22.74 8.20377 22.968 9.16377 23.136C9.57177 23.208 9.87177 23.292 10.0638 23.388C10.2558 23.484 10.3518 23.616 10.3518 23.784C10.3518 24.048 10.0038 24.18 9.30777 24.18C8.41977 24.18 7.65177 24.144 7.00377 24.072C6.23577 24.024 5.59977 24 5.09577 24C4.61577 24 4.03977 24.024 3.36777 24.072C2.79177 24.144 2.04777 24.18 1.13577 24.18ZM34.3902 24.288C33.3582 24.288 32.3142 24.108 31.2582 23.748C30.2262 23.388 29.6382 22.92 29.4942 22.344C29.3982 21.888 29.3382 21.504 29.3142 21.192C29.2902 20.88 29.2782 20.556 29.2782 20.22C29.2782 19.932 29.3262 19.716 29.4222 19.572C29.5182 19.404 29.6502 19.32 29.8182 19.32C29.9382 19.32 30.1542 19.68 30.4662 20.4C30.8982 21.36 31.4262 22.056 32.0502 22.488C32.6982 22.92 33.3822 23.136 34.1022 23.136C35.0862 23.136 35.8782 22.86 36.4782 22.308C37.1022 21.732 37.4142 20.916 37.4142 19.86C37.4142 19.068 37.2342 18.384 36.8742 17.808C36.5382 17.232 36.0342 16.944 35.3622 16.944C35.1942 16.944 34.9422 16.98 34.6062 17.052C34.2702 17.124 33.9582 17.16 33.6702 17.16C33.3342 17.16 33.0462 17.1 32.8062 16.98C32.5662 16.836 32.4462 16.632 32.4462 16.368C32.4462 15.768 32.9382 15.468 33.9222 15.468C34.0662 15.468 34.2942 15.504 34.6062 15.576C34.9422 15.648 35.2302 15.684 35.4702 15.684C35.9262 15.684 36.3342 15.468 36.6942 15.036C37.0782 14.604 37.2702 14.052 37.2702 13.38C37.2702 12.54 37.0542 11.82 36.6222 11.22C36.2142 10.596 35.5542 10.284 34.6422 10.284C33.3702 10.284 32.2662 11.052 31.3302 12.588C31.2102 12.804 31.0902 13.068 30.9702 13.38C30.8502 13.692 30.7422 13.92 30.6462 14.064C30.5742 14.184 30.4782 14.244 30.3582 14.244C30.1902 14.244 30.0822 14.184 30.0342 14.064C29.9862 13.92 29.9622 13.704 29.9622 13.416C29.9622 12.984 29.9982 12.552 30.0702 12.12L30.1782 11.364C30.2262 10.788 30.3942 10.44 30.6822 10.32C32.3142 9.576 33.6582 9.204 34.7142 9.204C36.2262 9.204 37.4502 9.528 38.3862 10.176C39.3462 10.824 39.8262 11.7 39.8262 12.804C39.8262 13.716 39.5982 14.424 39.1422 14.928C38.7102 15.432 38.1222 15.84 37.3782 16.152C37.1622 16.248 37.1622 16.332 37.3782 16.404C39.3462 16.908 40.3302 18 40.3302 19.68C40.3302 20.856 39.9822 21.792 39.2862 22.488C38.5902 23.16 37.7862 23.628 36.8742 23.892C35.9622 24.156 35.1342 24.288 34.3902 24.288ZM43.577 24.504C42.713 24.504 42.053 24.324 41.597 23.964C41.165 23.604 40.949 23.184 40.949 22.704C40.949 22.296 41.081 21.948 41.345 21.66C41.633 21.348 42.005 21.192 42.461 21.192C42.677 21.192 42.869 21.24 43.037 21.336C43.205 21.432 43.349 21.54 43.469 21.66C43.589 21.756 43.661 21.816 43.685 21.84C43.949 22.104 44.189 22.236 44.405 22.236C44.861 22.236 45.269 21.72 45.629 20.688C46.013 19.632 46.313 18.336 46.529 16.8C46.745 15.264 46.853 13.824 46.853 12.48C46.853 11.832 46.709 11.412 46.421 11.22C46.133 11.004 45.593 10.836 44.801 10.716C44.681 10.692 44.549 10.62 44.405 10.5C44.261 10.356 44.189 10.2 44.189 10.032C44.189 9.912 44.297 9.792 44.513 9.672C44.729 9.552 44.885 9.492 44.981 9.492C45.317 9.492 45.653 9.516 45.989 9.564L46.925 9.6H54.449C54.737 9.6 55.097 9.576 55.529 9.528L56.537 9.492C56.633 9.492 56.789 9.552 57.005 9.672C57.221 9.792 57.329 9.912 57.329 10.032C57.329 10.2 57.257 10.356 57.113 10.5C56.969 10.62 56.837 10.692 56.717 10.716C56.069 10.86 55.625 11.088 55.385 11.4C55.169 11.688 55.061 12.288 55.061 13.2V21.768C55.061 22.2 55.157 22.5 55.349 22.668C55.565 22.836 55.901 22.992 56.357 23.136C56.645 23.232 56.849 23.328 56.969 23.424C57.113 23.496 57.185 23.616 57.185 23.784C57.185 24 56.945 24.108 56.465 24.108C55.865 24.108 55.385 24.072 55.025 24C54.545 23.952 54.113 23.928 53.729 23.928C53.321 23.928 52.877 23.952 52.397 24C52.037 24.072 51.557 24.108 50.957 24.108C50.477 24.108 50.237 24 50.237 23.784C50.237 23.616 50.297 23.496 50.417 23.424C50.561 23.328 50.777 23.232 51.065 23.136C51.569 22.992 51.941 22.836 52.181 22.668C52.421 22.5 52.541 22.2 52.541 21.768V12.12C52.541 11.208 52.349 10.752 51.965 10.752H48.761C48.353 10.752 48.149 11.208 48.149 12.12C48.149 13.968 47.981 15.852 47.645 17.772C47.309 19.668 46.793 21.264 46.097 22.56C45.425 23.856 44.585 24.504 43.577 24.504ZM60.513 34.26C59.985 34.26 59.541 34.14 59.181 33.9C58.845 33.66 58.677 33.288 58.677 32.784C58.677 32.328 58.785 31.944 59.001 31.632C59.217 31.32 59.505 31.164 59.865 31.164C60.057 31.164 60.309 31.2 60.621 31.272C60.957 31.344 61.185 31.38 61.305 31.38C61.593 31.38 61.821 31.248 61.989 30.984C62.445 30.288 62.949 29.364 63.501 28.212C64.053 27.084 64.569 25.872 65.049 24.576C65.121 24.36 65.157 24.084 65.157 23.748C65.157 23.316 65.109 22.968 65.013 22.704L60.837 12.156C60.429 11.172 59.889 10.584 59.217 10.392C58.929 10.296 58.713 10.212 58.569 10.14C58.449 10.044 58.389 9.912 58.389 9.744C58.389 9.528 58.629 9.42 59.109 9.42C59.733 9.42 60.201 9.456 60.513 9.528C60.945 9.576 61.353 9.6 61.737 9.6C62.145 9.6 62.565 9.576 62.997 9.528C63.357 9.456 63.849 9.42 64.473 9.42C64.641 9.42 64.797 9.456 64.941 9.528C65.109 9.6 65.193 9.696 65.193 9.816C65.193 9.984 65.073 10.14 64.833 10.284C64.617 10.428 64.389 10.536 64.149 10.608C63.885 10.68 63.693 10.812 63.573 11.004C63.477 11.172 63.429 11.424 63.429 11.76C63.429 11.976 63.525 12.312 63.717 12.768L66.633 19.968C66.681 20.112 66.753 20.184 66.849 20.184C66.921 20.184 66.981 20.112 67.029 19.968L69.513 13.38C69.585 13.212 69.645 12.996 69.693 12.732C69.765 12.444 69.801 12.216 69.801 12.048C69.801 11.64 69.741 11.34 69.621 11.148C69.501 10.932 69.321 10.776 69.081 10.68C68.385 10.368 68.037 10.08 68.037 9.816C68.037 9.696 68.109 9.6 68.253 9.528C68.421 9.456 68.589 9.42 68.757 9.42C68.877 9.42 69.153 9.444 69.585 9.492C70.449 9.564 71.025 9.6 71.313 9.6C71.649 9.6 72.105 9.564 72.681 9.492C72.969 9.444 73.221 9.42 73.437 9.42C73.917 9.42 74.157 9.528 74.157 9.744C74.157 9.912 74.085 10.044 73.941 10.14C73.821 10.212 73.617 10.296 73.329 10.392C72.969 10.512 72.585 10.8 72.177 11.256C71.769 11.712 71.445 12.228 71.205 12.804L66.309 24.468L65.769 25.8C64.281 29.4 63.309 31.728 62.853 32.784C62.637 33.264 62.325 33.624 61.917 33.864C61.509 34.128 61.041 34.26 60.513 34.26ZM82.8501 24.108C82.2981 24.108 82.0221 24 82.0221 23.784C82.0221 23.616 82.0821 23.496 82.2021 23.424C82.3461 23.328 82.5621 23.232 82.8501 23.136C83.3541 22.992 83.7261 22.836 83.9661 22.668C84.2301 22.476 84.3621 22.164 84.3621 21.732V17.808C84.3621 17.376 84.2661 17.22 84.0741 17.34C83.6181 17.604 83.0061 17.808 82.2381 17.952C81.4941 18.096 80.7501 18.168 80.0061 18.168C78.9261 18.168 77.9901 17.892 77.1981 17.34C76.4301 16.788 76.0341 16.044 76.0101 15.108L75.9741 11.868C75.9741 11.388 75.9141 11.076 75.7941 10.932C75.6741 10.764 75.4341 10.62 75.0741 10.5C74.8101 10.404 74.6061 10.308 74.4621 10.212C74.3181 10.116 74.2461 9.984 74.2461 9.816C74.2461 9.6 74.5221 9.492 75.0741 9.492C75.4101 9.492 75.7461 9.516 76.0821 9.564C76.3701 9.636 76.7781 9.672 77.3061 9.672C77.8821 9.672 78.3261 9.636 78.6381 9.564C79.0701 9.516 79.4541 9.492 79.7901 9.492C80.0301 9.492 80.2221 9.516 80.3661 9.564C80.5341 9.588 80.6181 9.672 80.6181 9.816C80.6181 9.984 80.5461 10.116 80.4021 10.212C80.2821 10.284 80.0781 10.368 79.7901 10.464C79.3581 10.608 79.0341 10.776 78.8181 10.968C78.6021 11.136 78.4941 11.436 78.4941 11.868V14.46C78.4941 15.18 78.6981 15.78 79.1061 16.26C79.5141 16.74 80.1021 16.98 80.8701 16.98C81.5421 16.98 82.1181 16.944 82.5981 16.872C83.1021 16.776 83.5221 16.596 83.8581 16.332C84.1941 16.092 84.3621 15.84 84.3621 15.576V11.868C84.3621 11.436 84.2541 11.124 84.0381 10.932C83.8461 10.74 83.5341 10.584 83.1021 10.464C82.8141 10.368 82.5981 10.284 82.4541 10.212C82.3341 10.116 82.2741 9.984 82.2741 9.816C82.2741 9.672 82.3461 9.588 82.4901 9.564C82.6581 9.516 82.8621 9.492 83.1021 9.492C83.6781 9.492 84.1341 9.528 84.4701 9.6C84.9021 9.648 85.3101 9.672 85.6941 9.672C86.1021 9.672 86.5221 9.648 86.9541 9.6C87.2901 9.528 87.7581 9.492 88.3581 9.492C88.5981 9.492 88.7901 9.516 88.9341 9.564C89.1021 9.588 89.1861 9.672 89.1861 9.816C89.1861 9.984 89.1141 10.116 88.9701 10.212C88.8501 10.284 88.6461 10.368 88.3581 10.464C87.8781 10.608 87.5061 10.776 87.2421 10.968C87.0021 11.136 86.8821 11.436 86.8821 11.868V21.732C86.8821 22.164 87.0141 22.464 87.2781 22.632C87.5421 22.8 87.9381 22.968 88.4661 23.136C88.7541 23.232 88.9581 23.328 89.0781 23.424C89.2221 23.496 89.2941 23.616 89.2941 23.784C89.2941 24 89.0181 24.108 88.4661 24.108C87.8421 24.108 87.3501 24.072 86.9901 24C86.5101 23.952 86.0661 23.928 85.6581 23.928C85.2501 23.928 84.8061 23.952 84.3261 24C83.9661 24.072 83.4741 24.108 82.8501 24.108ZM94.3429 24.504C93.9349 24.504 93.5029 24.336 93.0469 24C92.5909 23.688 92.2069 23.292 91.8949 22.812C91.6069 22.308 91.4629 21.84 91.4629 21.408C91.4629 20.664 91.6549 20.076 92.0389 19.644C92.4469 19.212 93.1069 18.804 94.0189 18.42L97.6909 16.908C98.1469 16.716 98.4229 16.548 98.5189 16.404C98.6149 16.26 98.6749 15.948 98.6989 15.468L98.7709 13.164C98.7949 12.516 98.6149 11.976 98.2309 11.544C97.8469 11.088 97.3189 10.86 96.6469 10.86C96.2869 10.86 95.9269 10.92 95.5669 11.04C95.2069 11.16 94.9069 11.316 94.6669 11.508C94.4269 11.676 94.3069 12.024 94.3069 12.552L94.3429 13.2C94.3429 13.392 94.0309 13.656 93.4069 13.992C92.8069 14.304 92.3269 14.46 91.9669 14.46C91.8469 14.46 91.7509 14.436 91.6789 14.388C91.6069 14.316 91.5709 14.232 91.5709 14.136C91.5709 13.752 91.6909 13.344 91.9309 12.912C92.1949 12.456 92.5549 12.036 93.0109 11.652C93.8269 10.908 94.7389 10.296 95.7469 9.816C96.7789 9.336 97.6549 9.096 98.3749 9.096C99.2389 9.096 99.9469 9.408 100.499 10.032C101.075 10.632 101.351 11.388 101.327 12.3L101.147 20.94C101.123 21.444 101.231 21.852 101.471 22.164C101.711 22.476 102.035 22.632 102.443 22.632C103.043 22.632 103.487 22.5 103.775 22.236C103.895 22.116 103.991 22.056 104.063 22.056C104.183 22.056 104.279 22.092 104.351 22.164C104.423 22.236 104.459 22.332 104.459 22.452C104.459 22.548 104.423 22.68 104.351 22.848C104.279 22.992 104.183 23.124 104.063 23.244C103.679 23.628 103.259 23.928 102.803 24.144C102.371 24.384 101.963 24.504 101.579 24.504C100.475 24.504 99.5989 23.88 98.9509 22.632H98.8429C98.0509 23.28 97.2949 23.748 96.5749 24.036C95.8549 24.348 95.1109 24.504 94.3429 24.504ZM96.0349 22.776C96.8749 22.776 97.5829 22.488 98.1589 21.912C98.3029 21.768 98.4109 21.588 98.4829 21.372C98.5549 21.156 98.6029 20.844 98.6269 20.436L98.6989 18.672V18.456C98.6989 18.264 98.6749 18.132 98.6269 18.06C98.5789 17.964 98.4949 17.916 98.3749 17.916C98.2309 17.916 97.9909 17.976 97.6549 18.096C96.4549 18.528 95.5909 18.984 95.0629 19.464C94.5349 19.944 94.2709 20.412 94.2709 20.868C94.2709 21.468 94.4389 21.936 94.7749 22.272C95.1349 22.608 95.5549 22.776 96.0349 22.776ZM106.13 24.108C105.65 24.108 105.41 24 105.41 23.784C105.41 23.616 105.47 23.496 105.59 23.424C105.734 23.328 105.95 23.232 106.238 23.136C106.766 22.992 107.15 22.836 107.39 22.668C107.63 22.476 107.75 22.164 107.75 21.732V11.868C107.75 11.436 107.63 11.136 107.39 10.968C107.174 10.776 106.838 10.608 106.382 10.464C106.094 10.368 105.878 10.284 105.734 10.212C105.614 10.116 105.554 9.984 105.554 9.816C105.554 9.6 105.794 9.492 106.274 9.492C106.898 9.492 107.39 9.528 107.75 9.6C108.23 9.648 108.662 9.672 109.046 9.672C109.454 9.672 109.874 9.648 110.306 9.6C110.618 9.528 111.098 9.492 111.746 9.492C112.226 9.492 112.466 9.6 112.466 9.816C112.466 9.984 112.394 10.116 112.25 10.212C112.13 10.284 111.926 10.368 111.638 10.464C111.182 10.608 110.834 10.776 110.594 10.968C110.378 11.136 110.27 11.436 110.27 11.868V19.068C110.27 19.14 110.318 19.212 110.414 19.284C110.51 19.332 110.582 19.332 110.63 19.284L117.506 12.192C117.53 12.144 117.566 12.096 117.614 12.048C117.662 12 117.686 11.916 117.686 11.796C117.686 11.364 117.59 11.076 117.398 10.932C117.206 10.764 116.882 10.608 116.426 10.464C116.138 10.368 115.922 10.284 115.778 10.212C115.658 10.116 115.598 9.984 115.598 9.816C115.598 9.6 115.838 9.492 116.318 9.492C116.966 9.492 117.446 9.528 117.758 9.6C118.19 9.648 118.61 9.672 119.018 9.672C119.402 9.672 119.834 9.648 120.314 9.6C120.674 9.528 121.166 9.492 121.79 9.492C122.27 9.492 122.51 9.6 122.51 9.816C122.51 9.984 122.438 10.116 122.294 10.212C122.174 10.284 121.97 10.368 121.682 10.464C121.202 10.608 120.83 10.776 120.566 10.968C120.326 11.136 120.206 11.436 120.206 11.868V21.732C120.206 22.164 120.338 22.464 120.602 22.632C120.866 22.8 121.262 22.968 121.79 23.136C122.078 23.232 122.282 23.328 122.402 23.424C122.546 23.496 122.618 23.616 122.618 23.784C122.618 24 122.378 24.108 121.898 24.108C121.274 24.108 120.758 24.072 120.35 24C119.822 23.952 119.366 23.928 118.982 23.928C118.598 23.928 118.142 23.952 117.614 24C117.23 24.072 116.714 24.108 116.066 24.108C115.586 24.108 115.346 24 115.346 23.784C115.346 23.616 115.406 23.496 115.526 23.424C115.67 23.328 115.886 23.232 116.174 23.136C116.678 22.992 117.05 22.836 117.29 22.668C117.554 22.476 117.686 22.164 117.686 21.732V14.064C117.686 13.992 117.674 13.932 117.65 13.884C117.626 13.836 117.59 13.836 117.542 13.884L110.378 21.336C110.306 21.408 110.27 21.54 110.27 21.732C110.27 22.164 110.39 22.464 110.63 22.632C110.894 22.8 111.302 22.968 111.854 23.136C112.142 23.232 112.346 23.328 112.466 23.424C112.61 23.496 112.682 23.616 112.682 23.784C112.682 24 112.442 24.108 111.962 24.108C111.338 24.108 110.822 24.072 110.414 24C109.886 23.952 109.43 23.928 109.046 23.928C108.662 23.928 108.206 23.952 107.678 24C107.294 24.072 106.778 24.108 106.13 24.108ZM113.87 6.864C112.742 6.864 111.758 6.564 110.918 5.964C110.102 5.364 109.694 4.56 109.694 3.552C109.694 2.952 109.826 2.484 110.09 2.148C110.354 1.812 110.678 1.644 111.062 1.644C111.422 1.644 111.71 1.752 111.926 1.968C112.166 2.16 112.286 2.4 112.286 2.688L112.25 3.912C112.25 4.272 112.466 4.608 112.898 4.92C113.354 5.208 113.87 5.352 114.446 5.352C115.046 5.352 115.61 5.16 116.138 4.776C116.666 4.392 117.086 3.768 117.398 2.904C117.542 2.52 117.65 2.268 117.722 2.148C117.818 2.028 117.914 1.968 118.01 1.968C118.202 1.968 118.298 2.136 118.298 2.472C118.298 3.864 117.854 4.944 116.966 5.712C116.102 6.48 115.07 6.864 113.87 6.864ZM138.404 24.54C137.204 24.54 136.112 24.24 135.128 23.64C134.168 23.016 133.4 22.176 132.824 21.12C132.272 20.04 131.996 18.84 131.996 17.52C131.996 15.984 132.332 14.58 133.004 13.308C133.7 12.012 134.624 10.992 135.776 10.248C136.928 9.48 138.2 9.096 139.592 9.096C141.152 9.096 142.52 9.516 143.696 10.356C143.984 10.572 144.128 10.8 144.128 11.04C144.128 11.352 143.948 11.676 143.588 12.012C143.228 12.348 142.892 12.516 142.58 12.516C142.46 12.516 142.34 12.48 142.22 12.408C142.1 12.312 141.968 12.216 141.824 12.12C141.224 11.664 140.612 11.268 139.988 10.932C139.364 10.596 138.848 10.428 138.44 10.428C137.264 10.428 136.304 10.98 135.56 12.084C134.84 13.188 134.48 14.616 134.48 16.368C134.48 17.472 134.72 18.492 135.2 19.428C135.68 20.34 136.34 21.06 137.18 21.588C138.02 22.116 138.944 22.38 139.952 22.38C140.648 22.38 141.248 22.272 141.752 22.056C142.256 21.816 142.796 21.408 143.372 20.832C143.492 20.712 143.612 20.652 143.732 20.652C143.852 20.652 143.948 20.7 144.02 20.796C144.092 20.892 144.128 21.012 144.128 21.156C144.128 21.42 143.948 21.792 143.588 22.272C143.012 23.016 142.28 23.58 141.392 23.964C140.504 24.348 139.508 24.54 138.404 24.54ZM146.561 24.108C146.009 24.108 145.733 24 145.733 23.784C145.733 23.616 145.793 23.496 145.913 23.424C146.057 23.328 146.273 23.232 146.561 23.136C146.681 23.112 146.885 23.064 147.173 22.992C147.485 22.896 147.713 22.764 147.857 22.596C148.025 22.428 148.109 22.188 148.109 21.876V12.12C148.109 11.232 147.665 10.656 146.777 10.392C146.489 10.296 146.273 10.212 146.129 10.14C146.009 10.044 145.949 9.912 145.949 9.744C145.949 9.528 146.189 9.42 146.669 9.42C147.197 9.42 147.701 9.444 148.181 9.492L149.261 9.528C149.525 9.528 149.921 9.504 150.449 9.456C151.073 9.408 151.685 9.384 152.285 9.384C154.181 9.384 155.669 9.672 156.749 10.248C157.853 10.8 158.405 11.652 158.405 12.804C158.405 13.716 158.153 14.46 157.649 15.036C157.145 15.612 156.485 16.008 155.669 16.224C155.573 16.248 155.513 16.284 155.489 16.332C155.465 16.356 155.525 16.38 155.669 16.404C156.509 16.572 157.277 16.944 157.973 17.52C158.693 18.072 159.053 18.816 159.053 19.752C159.053 21.336 158.441 22.464 157.217 23.136C156.017 23.784 154.361 24.108 152.249 24.108L151.313 24.036C150.497 23.94 149.837 23.892 149.333 23.892C148.637 23.916 147.941 23.952 147.245 24C146.573 24.048 146.237 24.084 146.237 24.108H146.561ZM151.673 15.828C153.089 15.828 154.145 15.576 154.841 15.072C155.561 14.568 155.921 13.92 155.921 13.128C155.921 11.448 154.709 10.608 152.285 10.608C151.637 10.608 151.193 10.704 150.953 10.896C150.737 11.088 150.629 11.388 150.629 11.796V14.928C150.629 15.528 150.977 15.828 151.673 15.828ZM152.609 22.92C153.809 22.92 154.733 22.68 155.381 22.2C156.053 21.696 156.389 20.952 156.389 19.968C156.389 18.816 156.005 18.024 155.237 17.592C154.493 17.136 153.425 16.908 152.033 16.908C151.097 16.908 150.629 17.208 150.629 17.808V21.12C150.629 22.32 151.289 22.92 152.609 22.92ZM167.795 24.54C166.499 24.54 165.347 24.216 164.339 23.568C163.355 22.92 162.587 22.008 162.035 20.832C161.483 19.632 161.207 18.252 161.207 16.692C161.207 15.348 161.519 14.088 162.143 12.912C162.791 11.736 163.643 10.812 164.699 10.14C165.755 9.444 166.907 9.096 168.155 9.096C169.595 9.096 170.771 9.528 171.683 10.392C172.619 11.232 173.087 12.312 173.087 13.632C173.087 14.376 172.727 14.748 172.007 14.748H164.411C164.075 14.748 163.835 14.844 163.691 15.036C163.571 15.204 163.511 15.552 163.511 16.08C163.511 17.208 163.751 18.252 164.231 19.212C164.735 20.172 165.407 20.94 166.247 21.516C167.111 22.068 168.047 22.344 169.055 22.344C170.471 22.344 171.647 21.804 172.583 20.724C172.727 20.532 172.859 20.436 172.979 20.436C173.171 20.436 173.267 20.556 173.267 20.796C173.267 21.252 173.051 21.756 172.619 22.308C172.091 23.004 171.395 23.556 170.531 23.964C169.667 24.348 168.755 24.54 167.795 24.54ZM167.759 13.632C168.887 13.632 169.775 13.572 170.423 13.452C170.615 13.428 170.711 13.164 170.711 12.66C170.711 11.964 170.399 11.376 169.775 10.896C169.175 10.392 168.455 10.14 167.615 10.14C167.087 10.14 166.535 10.308 165.959 10.644C165.407 10.956 164.951 11.352 164.591 11.832C164.231 12.312 164.051 12.792 164.051 13.272C164.051 13.512 164.195 13.632 164.483 13.632H167.759ZM178.654 24.108C178.102 24.108 177.826 24 177.826 23.784C177.826 23.616 177.886 23.496 178.006 23.424C178.15 23.328 178.366 23.232 178.654 23.136C179.158 22.992 179.53 22.824 179.77 22.632C180.034 22.44 180.166 22.116 180.166 21.66V11.904C180.166 11.136 180.022 10.752 179.734 10.752H177.574C177.046 10.752 176.65 10.908 176.386 11.22C176.146 11.508 175.918 12.06 175.702 12.876C175.654 13.092 175.546 13.296 175.378 13.488C175.21 13.68 175.042 13.776 174.874 13.776C174.778 13.776 174.694 13.728 174.622 13.632C174.55 13.536 174.514 13.404 174.514 13.236C174.514 13.164 174.538 13.032 174.586 12.84C174.682 12.456 174.778 11.952 174.874 11.328C174.97 10.68 175.018 10.152 175.018 9.744C175.018 9.312 175.198 9.096 175.558 9.096C175.726 9.096 175.918 9.132 176.134 9.204C176.35 9.252 176.542 9.3 176.71 9.348C177.334 9.516 177.934 9.6 178.51 9.6H185.926C186.814 9.6 187.33 9.54 187.474 9.42C187.57 9.348 187.69 9.276 187.834 9.204C187.978 9.132 188.086 9.096 188.158 9.096C188.23 9.096 188.314 9.156 188.41 9.276C188.506 9.372 188.554 9.492 188.554 9.636C188.554 9.804 188.53 10.056 188.482 10.392C188.434 10.776 188.41 11.088 188.41 11.328C188.41 11.76 188.434 12.312 188.482 12.984V13.056C188.482 13.224 188.434 13.392 188.338 13.56C188.266 13.704 188.158 13.776 188.014 13.776C187.846 13.776 187.702 13.68 187.582 13.488C187.486 13.272 187.426 13.068 187.402 12.876C187.282 11.46 186.61 10.752 185.386 10.752H183.226C182.866 10.752 182.686 11.136 182.686 11.904V21.696C182.686 22.128 182.818 22.44 183.082 22.632C183.346 22.8 183.742 22.968 184.27 23.136C184.558 23.232 184.762 23.328 184.882 23.424C185.026 23.496 185.098 23.616 185.098 23.784C185.098 24 184.822 24.108 184.27 24.108C183.646 24.108 183.154 24.072 182.794 24C182.314 23.952 181.87 23.928 181.462 23.928C181.054 23.928 180.61 23.952 180.13 24C179.77 24.072 179.278 24.108 178.654 24.108ZM211.139 24.504C210.203 24.504 209.375 24.216 208.655 23.64C207.959 23.064 207.143 22.032 206.207 20.544C206.063 20.304 205.931 20.076 205.811 19.86C205.691 19.644 205.571 19.452 205.451 19.284C205.043 18.588 204.707 18.072 204.443 17.736C204.203 17.4 203.903 17.136 203.543 16.944C203.183 16.728 202.727 16.62 202.175 16.62C202.079 16.62 201.995 16.656 201.923 16.728C201.851 16.776 201.815 16.848 201.815 16.944V21.768C201.815 22.2 201.935 22.5 202.175 22.668C202.439 22.812 202.859 22.968 203.435 23.136C203.723 23.232 203.927 23.328 204.047 23.424C204.191 23.496 204.263 23.616 204.263 23.784C204.263 24 204.023 24.108 203.543 24.108C202.895 24.108 202.367 24.072 201.959 24C201.479 23.952 201.035 23.928 200.627 23.928C200.219 23.928 199.775 23.952 199.295 24C198.935 24.072 198.443 24.108 197.819 24.108H197.711C197.231 24.108 196.991 24 196.991 23.784C196.991 23.616 197.051 23.496 197.171 23.424C197.315 23.328 197.531 23.232 197.819 23.136C197.939 23.112 198.143 23.064 198.431 22.992C198.743 22.896 198.971 22.764 199.115 22.596C199.283 22.428 199.367 22.188 199.367 21.876V12.12C199.367 11.232 198.923 10.656 198.035 10.392C197.747 10.296 197.531 10.212 197.387 10.14C197.267 10.044 197.207 9.912 197.207 9.744C197.207 9.528 197.447 9.42 197.927 9.42C198.575 9.42 199.055 9.456 199.367 9.528C199.751 9.576 200.147 9.6 200.555 9.6C200.939 9.6 201.347 9.576 201.779 9.528C202.115 9.456 202.571 9.42 203.147 9.42H203.255C203.735 9.42 203.975 9.528 203.975 9.744C203.975 9.912 203.903 10.044 203.759 10.14C203.639 10.212 203.435 10.296 203.147 10.392C202.259 10.656 201.815 11.256 201.815 12.192V15.54C201.815 15.732 201.947 15.828 202.211 15.828C203.315 15.828 204.191 15.564 204.839 15.036C205.487 14.484 206.075 13.728 206.603 12.768L206.999 12.012C207.551 10.956 208.055 10.188 208.511 9.708C208.991 9.204 209.663 8.952 210.527 8.952C211.103 8.952 211.535 9.108 211.823 9.42C212.135 9.708 212.291 10.056 212.291 10.464C212.291 10.872 212.183 11.208 211.967 11.472C211.775 11.712 211.523 11.832 211.211 11.832C211.067 11.832 210.779 11.736 210.347 11.544C209.915 11.352 209.615 11.256 209.447 11.256C209.183 11.256 208.979 11.316 208.835 11.436C208.691 11.532 208.559 11.664 208.439 11.832C208.343 11.976 208.271 12.072 208.223 12.12C208.199 12.144 208.031 12.444 207.719 13.02C207.383 13.668 207.071 14.196 206.783 14.604C206.519 14.988 206.243 15.288 205.955 15.504C205.883 15.552 205.847 15.6 205.847 15.648C205.847 15.696 205.859 15.732 205.883 15.756C205.907 15.78 205.931 15.804 205.955 15.828C206.555 16.764 207.011 17.52 207.323 18.096L208.547 20.076C209.027 20.82 209.519 21.432 210.023 21.912C210.551 22.368 211.151 22.716 211.823 22.956C212.471 23.196 212.795 23.472 212.795 23.784C212.795 23.952 212.639 24.108 212.327 24.252C212.015 24.42 211.619 24.504 211.139 24.504ZM214.758 34.26C214.254 34.26 214.002 34.152 214.002 33.936C214.002 33.768 214.062 33.636 214.182 33.54C214.326 33.468 214.542 33.384 214.83 33.288C215.358 33.12 215.742 32.952 215.982 32.784C216.246 32.64 216.378 32.352 216.378 31.92V13.668C216.378 13.26 216.234 12.756 215.946 12.156C215.658 11.532 215.25 11.16 214.722 11.04C214.626 11.016 214.554 10.968 214.506 10.896C214.458 10.8 214.434 10.692 214.434 10.572C214.434 10.332 214.518 10.188 214.686 10.14C215.742 9.9 216.666 9.624 217.458 9.312C218.25 8.976 218.718 8.772 218.862 8.7L218.934 8.664C218.982 8.664 219.03 8.7 219.078 8.772C219.126 8.844 219.15 8.916 219.15 8.988L219.078 9.924C219.006 10.356 218.97 10.764 218.97 11.148C218.97 11.34 218.982 11.448 219.006 11.472C219.27 11.208 219.726 10.896 220.374 10.536C221.046 10.152 221.778 9.816 222.57 9.528C223.386 9.24 224.142 9.096 224.838 9.096C226.014 9.096 227.046 9.42 227.934 10.068C228.846 10.716 229.542 11.568 230.022 12.624C230.502 13.656 230.742 14.748 230.742 15.9C230.742 17.316 230.382 18.696 229.662 20.04C228.942 21.36 227.958 22.44 226.71 23.28C225.462 24.096 224.106 24.504 222.642 24.504C222.114 24.504 221.466 24.384 220.698 24.144C219.93 23.928 219.378 23.664 219.042 23.352C218.994 23.352 218.958 23.592 218.934 24.072C218.91 24.552 218.898 24.924 218.898 25.188V31.92C218.898 32.28 219.054 32.544 219.366 32.712C219.678 32.904 219.99 33.036 220.302 33.108C220.638 33.204 220.866 33.264 220.986 33.288C221.274 33.384 221.478 33.468 221.598 33.54C221.742 33.636 221.814 33.768 221.814 33.936C221.814 34.152 221.55 34.26 221.022 34.26C220.374 34.26 219.774 34.224 219.222 34.152C218.598 34.104 218.07 34.08 217.638 34.08C217.254 34.08 216.798 34.104 216.27 34.152C215.886 34.224 215.382 34.26 214.758 34.26ZM223.182 23.388C223.758 23.388 224.406 23.184 225.126 22.776C225.87 22.344 226.506 21.648 227.034 20.688C227.586 19.728 227.862 18.516 227.862 17.052C227.862 14.628 227.334 12.972 226.278 12.084C225.246 11.172 224.142 10.716 222.966 10.716C222.438 10.716 221.862 10.836 221.238 11.076C220.614 11.292 220.086 11.556 219.654 11.868C219.222 12.18 219.006 12.42 219.006 12.588C219.006 13.668 218.982 14.928 218.934 16.368C218.91 16.848 218.898 17.4 218.898 18.024C218.898 18.96 219.114 19.848 219.546 20.688C219.978 21.504 220.53 22.164 221.202 22.668C221.874 23.148 222.534 23.388 223.182 23.388ZM235.495 24.504C235.087 24.504 234.655 24.336 234.199 24C233.743 23.688 233.359 23.292 233.047 22.812C232.759 22.308 232.615 21.84 232.615 21.408C232.615 20.664 232.807 20.076 233.191 19.644C233.599 19.212 234.259 18.804 235.171 18.42L238.843 16.908C239.299 16.716 239.575 16.548 239.671 16.404C239.767 16.26 239.827 15.948 239.851 15.468L239.923 13.164C239.947 12.516 239.767 11.976 239.383 11.544C238.999 11.088 238.471 10.86 237.799 10.86C237.439 10.86 237.079 10.92 236.719 11.04C236.359 11.16 236.059 11.316 235.819 11.508C235.579 11.676 235.459 12.024 235.459 12.552L235.495 13.2C235.495 13.392 235.183 13.656 234.559 13.992C233.959 14.304 233.479 14.46 233.119 14.46C232.999 14.46 232.903 14.436 232.831 14.388C232.759 14.316 232.723 14.232 232.723 14.136C232.723 13.752 232.843 13.344 233.083 12.912C233.347 12.456 233.707 12.036 234.163 11.652C234.979 10.908 235.891 10.296 236.899 9.816C237.931 9.336 238.807 9.096 239.527 9.096C240.391 9.096 241.099 9.408 241.651 10.032C242.227 10.632 242.503 11.388 242.479 12.3L242.299 20.94C242.275 21.444 242.383 21.852 242.623 22.164C242.863 22.476 243.187 22.632 243.595 22.632C244.195 22.632 244.639 22.5 244.927 22.236C245.047 22.116 245.143 22.056 245.215 22.056C245.335 22.056 245.431 22.092 245.503 22.164C245.575 22.236 245.611 22.332 245.611 22.452C245.611 22.548 245.575 22.68 245.503 22.848C245.431 22.992 245.335 23.124 245.215 23.244C244.831 23.628 244.411 23.928 243.955 24.144C243.523 24.384 243.115 24.504 242.731 24.504C241.627 24.504 240.751 23.88 240.103 22.632H239.995C239.203 23.28 238.447 23.748 237.727 24.036C237.007 24.348 236.263 24.504 235.495 24.504ZM237.187 22.776C238.027 22.776 238.735 22.488 239.311 21.912C239.455 21.768 239.563 21.588 239.635 21.372C239.707 21.156 239.755 20.844 239.779 20.436L239.851 18.672V18.456C239.851 18.264 239.827 18.132 239.779 18.06C239.731 17.964 239.647 17.916 239.527 17.916C239.383 17.916 239.143 17.976 238.807 18.096C237.607 18.528 236.743 18.984 236.215 19.464C235.687 19.944 235.423 20.412 235.423 20.868C235.423 21.468 235.591 21.936 235.927 22.272C236.287 22.608 236.707 22.776 237.187 22.776ZM253.33 24.54C252.13 24.54 251.038 24.24 250.054 23.64C249.094 23.016 248.326 22.176 247.75 21.12C247.198 20.04 246.922 18.84 246.922 17.52C246.922 15.984 247.258 14.58 247.93 13.308C248.626 12.012 249.55 10.992 250.702 10.248C251.854 9.48 253.126 9.096 254.518 9.096C256.078 9.096 257.446 9.516 258.622 10.356C258.91 10.572 259.054 10.8 259.054 11.04C259.054 11.352 258.874 11.676 258.514 12.012C258.154 12.348 257.818 12.516 257.506 12.516C257.386 12.516 257.266 12.48 257.146 12.408C257.026 12.312 256.894 12.216 256.75 12.12C256.15 11.664 255.538 11.268 254.914 10.932C254.29 10.596 253.774 10.428 253.366 10.428C252.19 10.428 251.23 10.98 250.486 12.084C249.766 13.188 249.406 14.616 249.406 16.368C249.406 17.472 249.646 18.492 250.126 19.428C250.606 20.34 251.266 21.06 252.106 21.588C252.946 22.116 253.87 22.38 254.878 22.38C255.574 22.38 256.174 22.272 256.678 22.056C257.182 21.816 257.722 21.408 258.298 20.832C258.418 20.712 258.538 20.652 258.658 20.652C258.778 20.652 258.874 20.7 258.946 20.796C259.018 20.892 259.054 21.012 259.054 21.156C259.054 21.42 258.874 21.792 258.514 22.272C257.938 23.016 257.206 23.58 256.318 23.964C255.43 24.348 254.434 24.54 253.33 24.54ZM268.043 24.504C266.723 24.504 265.511 24.192 264.407 23.568C263.327 22.944 262.463 22.08 261.815 20.976C261.191 19.872 260.879 18.636 260.879 17.268C260.879 15.948 261.227 14.652 261.923 13.38C262.643 12.108 263.603 11.076 264.803 10.284C266.027 9.492 267.347 9.096 268.763 9.096C270.131 9.096 271.379 9.432 272.507 10.104C273.635 10.752 274.523 11.64 275.171 12.768C275.843 13.872 276.179 15.06 276.179 16.332C276.179 17.772 275.867 19.116 275.243 20.364C274.619 21.612 273.695 22.62 272.471 23.388C271.247 24.132 269.771 24.504 268.043 24.504ZM268.799 23.424C270.599 23.424 271.835 22.764 272.507 21.444C272.987 20.508 273.227 19.092 273.227 17.196C273.227 16.044 273.011 14.928 272.579 13.848C272.147 12.768 271.547 11.892 270.779 11.22C270.011 10.548 269.135 10.212 268.151 10.212C267.455 10.212 266.855 10.32 266.351 10.536C265.847 10.752 265.391 11.124 264.983 11.652C264.551 12.204 264.251 12.888 264.083 13.704C263.915 14.496 263.831 15.408 263.831 16.44C263.831 17.64 264.047 18.78 264.479 19.86C264.911 20.916 265.499 21.78 266.243 22.452C267.011 23.1 267.863 23.424 268.799 23.424ZM281.943 24.108C281.391 24.108 281.115 24 281.115 23.784C281.115 23.616 281.175 23.496 281.295 23.424C281.439 23.328 281.655 23.232 281.943 23.136C282.447 22.992 282.819 22.824 283.059 22.632C283.323 22.44 283.455 22.116 283.455 21.66V11.904C283.455 11.136 283.311 10.752 283.023 10.752H280.863C280.335 10.752 279.939 10.908 279.675 11.22C279.435 11.508 279.207 12.06 278.991 12.876C278.943 13.092 278.835 13.296 278.667 13.488C278.499 13.68 278.331 13.776 278.163 13.776C278.067 13.776 277.983 13.728 277.911 13.632C277.839 13.536 277.803 13.404 277.803 13.236C277.803 13.164 277.827 13.032 277.875 12.84C277.971 12.456 278.067 11.952 278.163 11.328C278.259 10.68 278.307 10.152 278.307 9.744C278.307 9.312 278.487 9.096 278.847 9.096C279.015 9.096 279.207 9.132 279.423 9.204C279.639 9.252 279.831 9.3 279.999 9.348C280.623 9.516 281.223 9.6 281.799 9.6H289.215C290.103 9.6 290.619 9.54 290.763 9.42C290.859 9.348 290.979 9.276 291.123 9.204C291.267 9.132 291.375 9.096 291.447 9.096C291.519 9.096 291.603 9.156 291.699 9.276C291.795 9.372 291.843 9.492 291.843 9.636C291.843 9.804 291.819 10.056 291.771 10.392C291.723 10.776 291.699 11.088 291.699 11.328C291.699 11.76 291.723 12.312 291.771 12.984V13.056C291.771 13.224 291.723 13.392 291.627 13.56C291.555 13.704 291.447 13.776 291.303 13.776C291.135 13.776 290.991 13.68 290.871 13.488C290.775 13.272 290.715 13.068 290.691 12.876C290.571 11.46 289.899 10.752 288.675 10.752H286.515C286.155 10.752 285.975 11.136 285.975 11.904V21.696C285.975 22.128 286.107 22.44 286.371 22.632C286.635 22.8 287.031 22.968 287.559 23.136C287.847 23.232 288.051 23.328 288.171 23.424C288.315 23.496 288.387 23.616 288.387 23.784C288.387 24 288.111 24.108 287.559 24.108C286.935 24.108 286.443 24.072 286.083 24C285.603 23.952 285.159 23.928 284.751 23.928C284.343 23.928 283.899 23.952 283.419 24C283.059 24.072 282.567 24.108 281.943 24.108ZM293.937 24.108C293.361 24.108 293.073 24 293.073 23.784C293.073 23.616 293.133 23.496 293.253 23.424C293.397 23.328 293.613 23.232 293.901 23.136C294.429 22.992 294.813 22.836 295.053 22.668C295.293 22.476 295.413 22.164 295.413 21.732V11.868C295.413 11.412 295.317 11.1 295.125 10.932C294.933 10.74 294.633 10.584 294.225 10.464C293.937 10.368 293.721 10.284 293.577 10.212C293.457 10.116 293.397 9.984 293.397 9.816C293.397 9.6 293.661 9.492 294.189 9.492C294.789 9.492 295.233 9.528 295.521 9.6C295.905 9.648 296.301 9.672 296.709 9.672C297.093 9.672 297.501 9.648 297.933 9.6C298.245 9.528 298.689 9.492 299.265 9.492C299.841 9.492 300.129 9.6 300.129 9.816C300.129 9.984 300.057 10.116 299.913 10.212C299.793 10.284 299.589 10.368 299.301 10.464C298.845 10.608 298.497 10.776 298.257 10.968C298.041 11.136 297.933 11.436 297.933 11.868V15.504C297.933 15.6 297.969 15.672 298.041 15.72C298.137 15.768 298.221 15.768 298.293 15.72C298.485 15.624 298.821 15.552 299.301 15.504C299.805 15.456 300.273 15.432 300.705 15.432C301.353 15.432 302.061 15.576 302.829 15.864C303.597 16.128 304.257 16.584 304.809 17.232C305.385 17.856 305.673 18.672 305.673 19.68C305.673 21.192 305.097 22.308 303.945 23.028C302.793 23.748 301.317 24.108 299.517 24.108C298.893 24.108 298.401 24.072 298.041 24C297.561 23.952 297.117 23.928 296.709 23.928C296.301 23.928 295.857 23.952 295.377 24C295.017 24.072 294.537 24.108 293.937 24.108ZM299.877 23.1C300.741 23.1 301.485 22.824 302.109 22.272C302.733 21.696 303.045 20.904 303.045 19.896C303.045 18.72 302.757 17.856 302.181 17.304C301.629 16.728 300.777 16.44 299.625 16.44C298.977 16.44 298.521 16.524 298.257 16.692C298.113 16.788 298.017 16.92 297.969 17.088C297.945 17.232 297.933 17.412 297.933 17.628V21.372C297.933 21.9 298.137 22.32 298.545 22.632C298.953 22.944 299.397 23.1 299.877 23.1ZM306.789 24.108C306.309 24.108 306.069 24 306.069 23.784C306.069 23.616 306.129 23.496 306.249 23.424C306.393 23.328 306.609 23.232 306.897 23.136C307.425 22.968 307.809 22.8 308.049 22.632C308.313 22.464 308.445 22.164 308.445 21.732V12.084C308.445 11.556 308.337 11.16 308.121 10.896C307.905 10.632 307.569 10.464 307.113 10.392C306.873 10.344 306.669 10.272 306.501 10.176C306.357 10.056 306.285 9.912 306.285 9.744C306.285 9.528 306.525 9.42 307.005 9.42C307.605 9.42 308.073 9.456 308.409 9.528C308.841 9.576 309.249 9.6 309.633 9.6C310.041 9.6 310.485 9.576 310.965 9.528C311.373 9.456 311.889 9.42 312.513 9.42C312.993 9.42 313.233 9.528 313.233 9.744C313.233 9.912 313.149 10.056 312.981 10.176C312.837 10.272 312.645 10.344 312.405 10.392C311.445 10.56 310.965 11.124 310.965 12.084V21.732C310.965 22.164 311.085 22.464 311.325 22.632C311.589 22.8 311.985 22.968 312.513 23.136C312.801 23.232 313.005 23.328 313.125 23.424C313.269 23.496 313.341 23.616 313.341 23.784C313.341 24 313.101 24.108 312.621 24.108C311.997 24.108 311.481 24.072 311.073 24C310.545 23.952 310.089 23.928 309.705 23.928C309.321 23.928 308.865 23.952 308.337 24C307.953 24.072 307.437 24.108 306.789 24.108ZM323.044 24.108C322.564 24.108 322.324 24 322.324 23.784C322.324 23.616 322.384 23.496 322.504 23.424C322.648 23.328 322.864 23.232 323.152 23.136C323.68 22.992 324.064 22.836 324.304 22.668C324.544 22.476 324.664 22.164 324.664 21.732V11.868C324.664 11.436 324.544 11.136 324.304 10.968C324.088 10.776 323.752 10.608 323.296 10.464C323.008 10.368 322.792 10.284 322.648 10.212C322.528 10.116 322.468 9.984 322.468 9.816C322.468 9.6 322.708 9.492 323.188 9.492C323.812 9.492 324.304 9.528 324.664 9.6C325.144 9.648 325.576 9.672 325.96 9.672C326.368 9.672 326.788 9.648 327.22 9.6C327.532 9.528 328.012 9.492 328.66 9.492C329.14 9.492 329.38 9.6 329.38 9.816C329.38 9.984 329.308 10.116 329.164 10.212C329.044 10.284 328.84 10.368 328.552 10.464C328.096 10.608 327.748 10.776 327.508 10.968C327.292 11.136 327.184 11.436 327.184 11.868V19.068C327.184 19.14 327.232 19.212 327.328 19.284C327.424 19.332 327.496 19.332 327.544 19.284L334.42 12.192C334.444 12.144 334.48 12.096 334.528 12.048C334.576 12 334.6 11.916 334.6 11.796C334.6 11.364 334.504 11.076 334.312 10.932C334.12 10.764 333.796 10.608 333.34 10.464C333.052 10.368 332.836 10.284 332.692 10.212C332.572 10.116 332.512 9.984 332.512 9.816C332.512 9.6 332.752 9.492 333.232 9.492C333.88 9.492 334.36 9.528 334.672 9.6C335.104 9.648 335.524 9.672 335.932 9.672C336.316 9.672 336.748 9.648 337.228 9.6C337.588 9.528 338.08 9.492 338.704 9.492C339.184 9.492 339.424 9.6 339.424 9.816C339.424 9.984 339.352 10.116 339.208 10.212C339.088 10.284 338.884 10.368 338.596 10.464C338.116 10.608 337.744 10.776 337.48 10.968C337.24 11.136 337.12 11.436 337.12 11.868V21.732C337.12 22.164 337.252 22.464 337.516 22.632C337.78 22.8 338.176 22.968 338.704 23.136C338.992 23.232 339.196 23.328 339.316 23.424C339.46 23.496 339.532 23.616 339.532 23.784C339.532 24 339.292 24.108 338.812 24.108C338.188 24.108 337.672 24.072 337.264 24C336.736 23.952 336.28 23.928 335.896 23.928C335.512 23.928 335.056 23.952 334.528 24C334.144 24.072 333.628 24.108 332.98 24.108C332.5 24.108 332.26 24 332.26 23.784C332.26 23.616 332.32 23.496 332.44 23.424C332.584 23.328 332.8 23.232 333.088 23.136C333.592 22.992 333.964 22.836 334.204 22.668C334.468 22.476 334.6 22.164 334.6 21.732V14.064C334.6 13.992 334.588 13.932 334.564 13.884C334.54 13.836 334.504 13.836 334.456 13.884L327.292 21.336C327.22 21.408 327.184 21.54 327.184 21.732C327.184 22.164 327.304 22.464 327.544 22.632C327.808 22.8 328.216 22.968 328.768 23.136C329.056 23.232 329.26 23.328 329.38 23.424C329.524 23.496 329.596 23.616 329.596 23.784C329.596 24 329.356 24.108 328.876 24.108C328.252 24.108 327.736 24.072 327.328 24C326.8 23.952 326.344 23.928 325.96 23.928C325.576 23.928 325.12 23.952 324.592 24C324.208 24.072 323.692 24.108 323.044 24.108ZM349.342 24.108C348.79 24.108 348.514 24 348.514 23.784C348.514 23.616 348.574 23.496 348.694 23.424C348.838 23.328 349.054 23.232 349.342 23.136C349.798 22.992 350.122 22.836 350.314 22.668C350.53 22.5 350.638 22.2 350.638 21.768V12.588C350.638 11.916 350.542 11.472 350.35 11.256C350.158 11.016 349.75 10.836 349.126 10.716C349.006 10.692 348.874 10.62 348.73 10.5C348.586 10.356 348.514 10.2 348.514 10.032C348.514 9.912 348.622 9.792 348.838 9.672C349.054 9.552 349.21 9.492 349.306 9.492C349.642 9.492 349.978 9.516 350.314 9.564L351.25 9.6H362.014L363.022 9.564C363.406 9.516 363.766 9.492 364.102 9.492C364.198 9.492 364.354 9.552 364.57 9.672C364.786 9.792 364.894 9.912 364.894 10.032C364.894 10.2 364.822 10.356 364.678 10.5C364.534 10.62 364.402 10.692 364.282 10.716C363.634 10.86 363.19 11.052 362.95 11.292C362.734 11.508 362.626 11.952 362.626 12.624V21.768C362.626 22.2 362.722 22.5 362.914 22.668C363.13 22.836 363.466 22.992 363.922 23.136C364.21 23.232 364.414 23.328 364.534 23.424C364.678 23.496 364.75 23.616 364.75 23.784C364.75 23.928 364.666 24.012 364.498 24.036C364.354 24.084 364.162 24.108 363.922 24.108C363.322 24.108 362.854 24.072 362.518 24C362.134 23.952 361.726 23.928 361.294 23.928C360.886 23.928 360.466 23.952 360.034 24C359.722 24.072 359.254 24.108 358.63 24.108C358.078 24.108 357.802 24 357.802 23.784C357.802 23.616 357.862 23.496 357.982 23.424C358.126 23.328 358.342 23.232 358.63 23.136C359.134 22.992 359.506 22.836 359.746 22.668C359.986 22.5 360.106 22.2 360.106 21.768V12.12C360.106 11.208 359.914 10.752 359.53 10.752H353.77C353.362 10.752 353.158 11.208 353.158 12.12V21.768C353.158 22.2 353.278 22.5 353.518 22.668C353.758 22.836 354.13 22.992 354.634 23.136C354.922 23.232 355.126 23.328 355.246 23.424C355.39 23.496 355.462 23.616 355.462 23.784C355.462 23.928 355.378 24.012 355.21 24.036C355.066 24.084 354.874 24.108 354.634 24.108C354.034 24.108 353.566 24.072 353.23 24C352.846 23.952 352.438 23.928 352.006 23.928C351.598 23.928 351.178 23.952 350.746 24C350.434 24.072 349.966 24.108 349.342 24.108ZM374.18 24.504C372.86 24.504 371.648 24.192 370.544 23.568C369.464 22.944 368.6 22.08 367.952 20.976C367.328 19.872 367.016 18.636 367.016 17.268C367.016 15.948 367.364 14.652 368.06 13.38C368.78 12.108 369.74 11.076 370.94 10.284C372.164 9.492 373.484 9.096 374.9 9.096C376.268 9.096 377.516 9.432 378.644 10.104C379.772 10.752 380.66 11.64 381.308 12.768C381.98 13.872 382.316 15.06 382.316 16.332C382.316 17.772 382.004 19.116 381.38 20.364C380.756 21.612 379.832 22.62 378.608 23.388C377.384 24.132 375.908 24.504 374.18 24.504ZM374.936 23.424C376.736 23.424 377.972 22.764 378.644 21.444C379.124 20.508 379.364 19.092 379.364 17.196C379.364 16.044 379.148 14.928 378.716 13.848C378.284 12.768 377.684 11.892 376.916 11.22C376.148 10.548 375.272 10.212 374.288 10.212C373.592 10.212 372.992 10.32 372.488 10.536C371.984 10.752 371.528 11.124 371.12 11.652C370.688 12.204 370.388 12.888 370.22 13.704C370.052 14.496 369.968 15.408 369.968 16.44C369.968 17.64 370.184 18.78 370.616 19.86C371.048 20.916 371.636 21.78 372.38 22.452C373.148 23.1 374 23.424 374.936 23.424ZM389.785 24.288C388.753 24.288 387.709 24.108 386.653 23.748C385.621 23.388 385.033 22.92 384.889 22.344C384.793 21.888 384.733 21.504 384.709 21.192C384.685 20.88 384.673 20.556 384.673 20.22C384.673 19.932 384.721 19.716 384.817 19.572C384.913 19.404 385.045 19.32 385.213 19.32C385.333 19.32 385.549 19.68 385.861 20.4C386.293 21.36 386.821 22.056 387.445 22.488C388.093 22.92 388.777 23.136 389.497 23.136C390.481 23.136 391.273 22.86 391.873 22.308C392.497 21.732 392.809 20.916 392.809 19.86C392.809 19.068 392.629 18.384 392.269 17.808C391.933 17.232 391.429 16.944 390.757 16.944C390.589 16.944 390.337 16.98 390.001 17.052C389.665 17.124 389.353 17.16 389.065 17.16C388.729 17.16 388.441 17.1 388.201 16.98C387.961 16.836 387.841 16.632 387.841 16.368C387.841 15.768 388.333 15.468 389.317 15.468C389.461 15.468 389.689 15.504 390.001 15.576C390.337 15.648 390.625 15.684 390.865 15.684C391.321 15.684 391.729 15.468 392.089 15.036C392.473 14.604 392.665 14.052 392.665 13.38C392.665 12.54 392.449 11.82 392.017 11.22C391.609 10.596 390.949 10.284 390.037 10.284C388.765 10.284 387.661 11.052 386.725 12.588C386.605 12.804 386.485 13.068 386.365 13.38C386.245 13.692 386.137 13.92 386.041 14.064C385.969 14.184 385.873 14.244 385.753 14.244C385.585 14.244 385.477 14.184 385.429 14.064C385.381 13.92 385.357 13.704 385.357 13.416C385.357 12.984 385.393 12.552 385.465 12.12L385.573 11.364C385.621 10.788 385.789 10.44 386.077 10.32C387.709 9.576 389.053 9.204 390.109 9.204C391.621 9.204 392.845 9.528 393.781 10.176C394.741 10.824 395.221 11.7 395.221 12.804C395.221 13.716 394.993 14.424 394.537 14.928C394.105 15.432 393.517 15.84 392.773 16.152C392.557 16.248 392.557 16.332 392.773 16.404C394.741 16.908 395.725 18 395.725 19.68C395.725 20.856 395.377 21.792 394.681 22.488C393.985 23.16 393.181 23.628 392.269 23.892C391.357 24.156 390.529 24.288 389.785 24.288ZM398.419 24.108C397.939 24.108 397.699 24 397.699 23.784C397.699 23.616 397.759 23.496 397.879 23.424C398.023 23.328 398.239 23.232 398.527 23.136C399.055 22.992 399.439 22.836 399.679 22.668C399.919 22.476 400.039 22.164 400.039 21.732V11.868C400.039 11.436 399.919 11.136 399.679 10.968C399.463 10.776 399.127 10.608 398.671 10.464C398.383 10.368 398.167 10.284 398.023 10.212C397.903 10.116 397.843 9.984 397.843 9.816C397.843 9.6 398.083 9.492 398.563 9.492C399.187 9.492 399.679 9.528 400.039 9.6C400.519 9.648 400.951 9.672 401.335 9.672C401.743 9.672 402.163 9.648 402.595 9.6C402.907 9.528 403.387 9.492 404.035 9.492C404.515 9.492 404.755 9.6 404.755 9.816C404.755 9.984 404.683 10.116 404.539 10.212C404.419 10.284 404.215 10.368 403.927 10.464C403.471 10.608 403.123 10.776 402.883 10.968C402.667 11.136 402.559 11.436 402.559 11.868V19.068C402.559 19.14 402.607 19.212 402.703 19.284C402.799 19.332 402.871 19.332 402.919 19.284L409.795 12.192C409.819 12.144 409.855 12.096 409.903 12.048C409.951 12 409.975 11.916 409.975 11.796C409.975 11.364 409.879 11.076 409.687 10.932C409.495 10.764 409.171 10.608 408.715 10.464C408.427 10.368 408.211 10.284 408.067 10.212C407.947 10.116 407.887 9.984 407.887 9.816C407.887 9.6 408.127 9.492 408.607 9.492C409.255 9.492 409.735 9.528 410.047 9.6C410.479 9.648 410.899 9.672 411.307 9.672C411.691 9.672 412.123 9.648 412.603 9.6C412.963 9.528 413.455 9.492 414.079 9.492C414.559 9.492 414.799 9.6 414.799 9.816C414.799 9.984 414.727 10.116 414.583 10.212C414.463 10.284 414.259 10.368 413.971 10.464C413.491 10.608 413.119 10.776 412.855 10.968C412.615 11.136 412.495 11.436 412.495 11.868V21.732C412.495 22.164 412.627 22.464 412.891 22.632C413.155 22.8 413.551 22.968 414.079 23.136C414.367 23.232 414.571 23.328 414.691 23.424C414.835 23.496 414.907 23.616 414.907 23.784C414.907 24 414.667 24.108 414.187 24.108C413.563 24.108 413.047 24.072 412.639 24C412.111 23.952 411.655 23.928 411.271 23.928C410.887 23.928 410.431 23.952 409.903 24C409.519 24.072 409.003 24.108 408.355 24.108C407.875 24.108 407.635 24 407.635 23.784C407.635 23.616 407.695 23.496 407.815 23.424C407.959 23.328 408.175 23.232 408.463 23.136C408.967 22.992 409.339 22.836 409.579 22.668C409.843 22.476 409.975 22.164 409.975 21.732V14.064C409.975 13.992 409.963 13.932 409.939 13.884C409.915 13.836 409.879 13.836 409.831 13.884L402.667 21.336C402.595 21.408 402.559 21.54 402.559 21.732C402.559 22.164 402.679 22.464 402.919 22.632C403.183 22.8 403.591 22.968 404.143 23.136C404.431 23.232 404.635 23.328 404.755 23.424C404.899 23.496 404.971 23.616 404.971 23.784C404.971 24 404.731 24.108 404.251 24.108C403.627 24.108 403.111 24.072 402.703 24C402.175 23.952 401.719 23.928 401.335 23.928C400.951 23.928 400.495 23.952 399.967 24C399.583 24.072 399.067 24.108 398.419 24.108ZM420.318 24.108C419.766 24.108 419.49 24 419.49 23.784C419.49 23.616 419.55 23.496 419.67 23.424C419.814 23.328 420.03 23.232 420.318 23.136C420.822 22.992 421.194 22.824 421.434 22.632C421.698 22.44 421.83 22.116 421.83 21.66V11.904C421.83 11.136 421.686 10.752 421.398 10.752H419.238C418.71 10.752 418.314 10.908 418.05 11.22C417.81 11.508 417.582 12.06 417.366 12.876C417.318 13.092 417.21 13.296 417.042 13.488C416.874 13.68 416.706 13.776 416.538 13.776C416.442 13.776 416.358 13.728 416.286 13.632C416.214 13.536 416.178 13.404 416.178 13.236C416.178 13.164 416.202 13.032 416.25 12.84C416.346 12.456 416.442 11.952 416.538 11.328C416.634 10.68 416.682 10.152 416.682 9.744C416.682 9.312 416.862 9.096 417.222 9.096C417.39 9.096 417.582 9.132 417.798 9.204C418.014 9.252 418.206 9.3 418.374 9.348C418.998 9.516 419.598 9.6 420.174 9.6H427.59C428.478 9.6 428.994 9.54 429.138 9.42C429.234 9.348 429.354 9.276 429.498 9.204C429.642 9.132 429.75 9.096 429.822 9.096C429.894 9.096 429.978 9.156 430.074 9.276C430.17 9.372 430.218 9.492 430.218 9.636C430.218 9.804 430.194 10.056 430.146 10.392C430.098 10.776 430.074 11.088 430.074 11.328C430.074 11.76 430.098 12.312 430.146 12.984V13.056C430.146 13.224 430.098 13.392 430.002 13.56C429.93 13.704 429.822 13.776 429.678 13.776C429.51 13.776 429.366 13.68 429.246 13.488C429.15 13.272 429.09 13.068 429.066 12.876C428.946 11.46 428.274 10.752 427.05 10.752H424.89C424.53 10.752 424.35 11.136 424.35 11.904V21.696C424.35 22.128 424.482 22.44 424.746 22.632C425.01 22.8 425.406 22.968 425.934 23.136C426.222 23.232 426.426 23.328 426.546 23.424C426.69 23.496 426.762 23.616 426.762 23.784C426.762 24 426.486 24.108 425.934 24.108C425.31 24.108 424.818 24.072 424.458 24C423.978 23.952 423.534 23.928 423.126 23.928C422.718 23.928 422.274 23.952 421.794 24C421.434 24.072 420.942 24.108 420.318 24.108ZM432.204 24.108C431.724 24.108 431.484 24 431.484 23.784C431.484 23.616 431.544 23.496 431.664 23.424C431.808 23.328 432.024 23.232 432.312 23.136C432.84 22.992 433.224 22.836 433.464 22.668C433.704 22.476 433.824 22.164 433.824 21.732V11.868C433.824 11.436 433.704 11.136 433.464 10.968C433.248 10.776 432.912 10.608 432.456 10.464C432.168 10.368 431.952 10.284 431.808 10.212C431.688 10.116 431.628 9.984 431.628 9.816C431.628 9.6 431.868 9.492 432.348 9.492C432.972 9.492 433.464 9.528 433.824 9.6C434.304 9.648 434.736 9.672 435.12 9.672C435.528 9.672 435.948 9.648 436.38 9.6C436.692 9.528 437.172 9.492 437.82 9.492C438.3 9.492 438.54 9.6 438.54 9.816C438.54 9.984 438.468 10.116 438.324 10.212C438.204 10.284 438 10.368 437.712 10.464C437.256 10.608 436.908 10.776 436.668 10.968C436.452 11.136 436.344 11.436 436.344 11.868V19.068C436.344 19.14 436.392 19.212 436.488 19.284C436.584 19.332 436.656 19.332 436.704 19.284L443.58 12.192C443.604 12.144 443.64 12.096 443.688 12.048C443.736 12 443.76 11.916 443.76 11.796C443.76 11.364 443.664 11.076 443.472 10.932C443.28 10.764 442.956 10.608 442.5 10.464C442.212 10.368 441.996 10.284 441.852 10.212C441.732 10.116 441.672 9.984 441.672 9.816C441.672 9.6 441.912 9.492 442.392 9.492C443.04 9.492 443.52 9.528 443.832 9.6C444.264 9.648 444.684 9.672 445.092 9.672C445.476 9.672 445.908 9.648 446.388 9.6C446.748 9.528 447.24 9.492 447.864 9.492C448.344 9.492 448.584 9.6 448.584 9.816C448.584 9.984 448.512 10.116 448.368 10.212C448.248 10.284 448.044 10.368 447.756 10.464C447.276 10.608 446.904 10.776 446.64 10.968C446.4 11.136 446.28 11.436 446.28 11.868V21.732C446.28 22.164 446.412 22.464 446.676 22.632C446.94 22.8 447.336 22.968 447.864 23.136C448.152 23.232 448.356 23.328 448.476 23.424C448.62 23.496 448.692 23.616 448.692 23.784C448.692 24 448.452 24.108 447.972 24.108C447.348 24.108 446.832 24.072 446.424 24C445.896 23.952 445.44 23.928 445.056 23.928C444.672 23.928 444.216 23.952 443.688 24C443.304 24.072 442.788 24.108 442.14 24.108C441.66 24.108 441.42 24 441.42 23.784C441.42 23.616 441.48 23.496 441.6 23.424C441.744 23.328 441.96 23.232 442.248 23.136C442.752 22.992 443.124 22.836 443.364 22.668C443.628 22.476 443.76 22.164 443.76 21.732V14.064C443.76 13.992 443.748 13.932 443.724 13.884C443.7 13.836 443.664 13.836 443.616 13.884L436.452 21.336C436.38 21.408 436.344 21.54 436.344 21.732C436.344 22.164 436.464 22.464 436.704 22.632C436.968 22.8 437.376 22.968 437.928 23.136C438.216 23.232 438.42 23.328 438.54 23.424C438.684 23.496 438.756 23.616 438.756 23.784C438.756 24 438.516 24.108 438.036 24.108C437.412 24.108 436.896 24.072 436.488 24C435.96 23.952 435.504 23.928 435.12 23.928C434.736 23.928 434.28 23.952 433.752 24C433.368 24.072 432.852 24.108 432.204 24.108ZM451.296 24.108C450.744 24.108 450.468 24 450.468 23.784C450.468 23.616 450.528 23.496 450.648 23.424C450.792 23.328 451.008 23.232 451.296 23.136C451.416 23.112 451.62 23.064 451.908 22.992C452.22 22.896 452.448 22.764 452.592 22.596C452.76 22.428 452.844 22.188 452.844 21.876V12.12C452.844 11.232 452.4 10.656 451.512 10.392C451.224 10.296 451.008 10.212 450.864 10.14C450.744 10.044 450.684 9.912 450.684 9.744C450.684 9.528 450.924 9.42 451.404 9.42C451.932 9.42 452.436 9.444 452.916 9.492L453.996 9.528C454.26 9.528 454.656 9.504 455.184 9.456C455.808 9.408 456.42 9.384 457.02 9.384C458.916 9.384 460.404 9.672 461.484 10.248C462.588 10.8 463.14 11.652 463.14 12.804C463.14 13.716 462.888 14.46 462.384 15.036C461.88 15.612 461.22 16.008 460.404 16.224C460.308 16.248 460.248 16.284 460.224 16.332C460.2 16.356 460.26 16.38 460.404 16.404C461.244 16.572 462.012 16.944 462.708 17.52C463.428 18.072 463.788 18.816 463.788 19.752C463.788 21.336 463.176 22.464 461.952 23.136C460.752 23.784 459.096 24.108 456.984 24.108L456.048 24.036C455.232 23.94 454.572 23.892 454.068 23.892C453.372 23.916 452.676 23.952 451.98 24C451.308 24.048 450.972 24.084 450.972 24.108H451.296ZM456.408 15.828C457.824 15.828 458.88 15.576 459.576 15.072C460.296 14.568 460.656 13.92 460.656 13.128C460.656 11.448 459.444 10.608 457.02 10.608C456.372 10.608 455.928 10.704 455.688 10.896C455.472 11.088 455.364 11.388 455.364 11.796V14.928C455.364 15.528 455.712 15.828 456.408 15.828ZM457.344 22.92C458.544 22.92 459.468 22.68 460.116 22.2C460.788 21.696 461.124 20.952 461.124 19.968C461.124 18.816 460.74 18.024 459.972 17.592C459.228 17.136 458.16 16.908 456.768 16.908C455.832 16.908 455.364 17.208 455.364 17.808V21.12C455.364 22.32 456.024 22.92 457.344 22.92ZM469.073 24.504C468.665 24.504 468.233 24.336 467.777 24C467.321 23.688 466.937 23.292 466.625 22.812C466.337 22.308 466.193 21.84 466.193 21.408C466.193 20.664 466.385 20.076 466.769 19.644C467.177 19.212 467.837 18.804 468.749 18.42L472.421 16.908C472.877 16.716 473.153 16.548 473.249 16.404C473.345 16.26 473.405 15.948 473.429 15.468L473.501 13.164C473.525 12.516 473.345 11.976 472.961 11.544C472.577 11.088 472.049 10.86 471.377 10.86C471.017 10.86 470.657 10.92 470.297 11.04C469.937 11.16 469.637 11.316 469.397 11.508C469.157 11.676 469.037 12.024 469.037 12.552L469.073 13.2C469.073 13.392 468.761 13.656 468.137 13.992C467.537 14.304 467.057 14.46 466.697 14.46C466.577 14.46 466.481 14.436 466.409 14.388C466.337 14.316 466.301 14.232 466.301 14.136C466.301 13.752 466.421 13.344 466.661 12.912C466.925 12.456 467.285 12.036 467.741 11.652C468.557 10.908 469.469 10.296 470.477 9.816C471.509 9.336 472.385 9.096 473.105 9.096C473.969 9.096 474.677 9.408 475.229 10.032C475.805 10.632 476.081 11.388 476.057 12.3L475.877 20.94C475.853 21.444 475.961 21.852 476.201 22.164C476.441 22.476 476.765 22.632 477.173 22.632C477.773 22.632 478.217 22.5 478.505 22.236C478.625 22.116 478.721 22.056 478.793 22.056C478.913 22.056 479.009 22.092 479.081 22.164C479.153 22.236 479.189 22.332 479.189 22.452C479.189 22.548 479.153 22.68 479.081 22.848C479.009 22.992 478.913 23.124 478.793 23.244C478.409 23.628 477.989 23.928 477.533 24.144C477.101 24.384 476.693 24.504 476.309 24.504C475.205 24.504 474.329 23.88 473.681 22.632H473.573C472.781 23.28 472.025 23.748 471.305 24.036C470.585 24.348 469.841 24.504 469.073 24.504ZM470.765 22.776C471.605 22.776 472.313 22.488 472.889 21.912C473.033 21.768 473.141 21.588 473.213 21.372C473.285 21.156 473.333 20.844 473.357 20.436L473.429 18.672V18.456C473.429 18.264 473.405 18.132 473.357 18.06C473.309 17.964 473.225 17.916 473.105 17.916C472.961 17.916 472.721 17.976 472.385 18.096C471.185 18.528 470.321 18.984 469.793 19.464C469.265 19.944 469.001 20.412 469.001 20.868C469.001 21.468 469.169 21.936 469.505 22.272C469.865 22.608 470.285 22.776 470.765 22.776ZM483.668 16.62C483.476 16.62 483.332 16.524 483.236 16.332C483.14 16.116 483.068 15.744 483.02 15.216C482.78 13.008 482.564 10.632 482.372 8.088C482.18 5.52 482.084 3.696 482.084 2.616C482.084 2.088 482.24 1.632 482.552 1.248C482.888 0.839998 483.296 0.635998 483.776 0.635998C484.256 0.635998 484.64 0.839998 484.928 1.248C485.24 1.632 485.396 2.088 485.396 2.616C485.396 4.224 485.036 8.424 484.316 15.216C484.268 15.624 484.184 15.96 484.064 16.224C483.968 16.488 483.836 16.62 483.668 16.62ZM483.74 24.504C483.14 24.504 482.624 24.3 482.192 23.892C481.784 23.46 481.58 22.944 481.58 22.344C481.58 21.744 481.784 21.24 482.192 20.832C482.624 20.4 483.14 20.184 483.74 20.184C484.34 20.184 484.844 20.4 485.252 20.832C485.684 21.24 485.9 21.744 485.9 22.344C485.9 22.944 485.684 23.46 485.252 23.892C484.844 24.3 484.34 24.504 483.74 24.504Z" fill="black"/>
</svg>
